<svg width="272" height="134" viewBox="0 0 272 134" fill="none" xmlns="http://www.w3.org/2000/svg">
<path d="M171 41.3135C171 51.2546 179.059 59.3135 189 59.3135H233C242.941 59.3135 251 67.3724 251 77.3135V104C251 113.941 242.941 122 233 122H39C29.0589 122 21 113.941 21 104V35C21 25.0589 29.0589 17 39 17H153C162.941 17 171 25.0589 171 35V41.3135Z" fill="white"/>
<path d="M54.202 86H52.578V76.2H55.224C58.066 76.2 59.228 77.236 59.228 79.336C59.228 81.618 57.814 82.85 55.07 82.85H54.202V86ZM55.462 77.516H54.202V81.52H55.126C56.708 81.52 57.59 80.876 57.59 79.42C57.59 78.132 56.904 77.516 55.462 77.516ZM60.9725 78.818H62.5545V82.598C62.5545 83.466 62.6385 83.886 62.9045 84.208C63.1705 84.516 63.5345 84.656 64.0805 84.656C64.6545 84.656 65.2005 84.39 65.6345 83.914V78.818H67.2165V86H65.9005L65.7465 84.964C65.0885 85.72 64.3465 86.126 63.3245 86.126C62.4705 86.126 61.8545 85.846 61.4765 85.37C61.0985 84.866 60.9725 84.278 60.9725 82.892V78.818ZM72.2787 86.112C71.7327 86.112 71.1727 86.014 70.6407 85.804L69.3807 86V75.36H70.9627V79.924C71.4807 79.112 72.2367 78.678 73.2307 78.678C74.8267 78.678 75.9047 79.868 75.9047 82.164C75.9047 84.698 74.4487 86.112 72.2787 86.112ZM70.9627 81.394V84.572C71.3687 84.754 71.7747 84.824 72.1527 84.824C73.3987 84.824 74.2527 83.984 74.2527 82.276C74.2527 80.82 73.6227 80.078 72.6707 80.078C71.9287 80.078 71.3547 80.512 70.9627 81.394ZM79.0838 86H77.5018V75.36H79.0838V86ZM82.0459 77.628C81.4299 77.628 81.0519 77.264 81.0519 76.704C81.0519 76.144 81.4299 75.78 82.0459 75.78C82.6479 75.78 83.0259 76.144 83.0259 76.704C83.0259 77.264 82.6479 77.628 82.0459 77.628ZM81.2479 86V78.818H82.8299V86H81.2479ZM86.324 86.098C85.764 86.098 85.19 86.056 84.616 85.986L84.546 84.768C85.204 84.866 85.694 84.908 86.156 84.908C87.206 84.908 87.85 84.656 87.85 84.068C87.85 83.606 87.668 83.34 86.394 82.892C85.12 82.43 84.434 81.898 84.434 80.736C84.434 79.518 85.456 78.72 87.36 78.72C87.892 78.72 88.368 78.748 88.928 78.818L88.998 80.036C88.494 79.966 88.074 79.91 87.486 79.91C86.52 79.91 86.072 80.176 86.072 80.722C86.072 81.226 86.352 81.478 87.514 81.898C89.054 82.444 89.474 83.018 89.474 83.97C89.474 85.37 88.312 86.098 86.324 86.098ZM92.6463 86H91.0643V75.36H92.6463V79.728C93.3183 79.042 94.1303 78.692 95.0823 78.692C95.9783 78.692 96.5803 78.958 96.9583 79.448C97.3363 79.952 97.4623 80.54 97.4623 81.926V86H95.8803V82.22C95.8803 81.338 95.7963 80.932 95.5303 80.61C95.2643 80.302 94.9003 80.162 94.3683 80.162C93.7103 80.162 93.0943 80.428 92.6463 80.918V86ZM106.11 86.14C103.366 86.14 102.232 84.726 102.232 81.716V76.2H103.856V81.52C103.856 83.914 104.612 84.754 106.152 84.754C107.888 84.754 108.378 83.648 108.378 81.52V76.2H110.002V81.716C110.002 83.256 109.708 84.39 109.022 85.118C108.406 85.804 107.44 86.14 106.11 86.14ZM113.535 86H112.051V76.2H113.479L118.239 83.144V76.2H119.723V86H118.295L113.535 79.056V86ZM127.796 84.614V86H122.154V76.2H123.778V84.614H127.796ZM130.86 86H129.236V76.2H130.86V86ZM134.234 86H132.694L133.982 76.172H135.55C136.586 78.888 137.552 81.38 138.462 84.012C139.372 81.38 140.324 78.888 141.346 76.172H142.928L144.174 86H142.494C142.2 83.284 141.948 80.988 141.766 78.538C140.926 81.044 140.072 83.48 139.162 86H137.664C136.74 83.522 135.858 81.1 135.032 78.608C134.808 81.058 134.542 83.396 134.234 86ZM147.608 86H145.984V76.2H147.608V86ZM153.523 86H151.899V77.586H148.791V76.2H156.645V77.586H153.523V86ZM163.746 84.614V86H157.81V76.2H163.746V77.586H159.434V80.428H163.186V81.772H159.434V84.614H163.746ZM168.251 86H165.535V76.2H167.971C171.737 76.2 173.473 77.81 173.473 81.03C173.473 84.684 171.261 86 168.251 86ZM168.293 77.586H167.159V84.614H168.307C170.309 84.614 171.807 83.816 171.807 81.058C171.807 78.608 170.421 77.586 168.293 77.586ZM56.316 106H54.692V97.586H51.584V96.2H59.438V97.586H56.316V106ZM61.5291 106H59.9471V98.818H61.2631L61.4871 100.372C61.9211 99.322 62.8451 98.72 63.8951 98.72L63.9791 100.246C62.8871 100.218 61.9911 100.68 61.5291 101.87V106ZM66.1182 97.628C65.5022 97.628 65.1242 97.264 65.1242 96.704C65.1242 96.144 65.5022 95.78 66.1182 95.78C66.7202 95.78 67.0982 96.144 67.0982 96.704C67.0982 97.264 66.7202 97.628 66.1182 97.628ZM65.3202 106V98.818H66.9022V106H65.3202ZM71.9643 106.112C71.5303 106.112 71.0823 106.042 70.6483 105.916V109.36H69.0663V98.818H70.3823L70.5503 100.064C71.0823 99.168 71.8663 98.678 72.9163 98.678C74.5123 98.678 75.5903 99.854 75.5903 102.15C75.5903 104.698 74.1343 106.112 71.9643 106.112ZM70.6483 101.394V104.572C71.0543 104.74 71.4603 104.81 71.8383 104.81C73.0843 104.81 73.9383 103.984 73.9383 102.262C73.9383 100.82 73.3083 100.078 72.3563 100.078C71.6143 100.078 71.0403 100.512 70.6483 101.394ZM78.5174 106.098C77.9574 106.098 77.3834 106.056 76.8094 105.986L76.7394 104.768C77.3974 104.866 77.8874 104.908 78.3494 104.908C79.3994 104.908 80.0434 104.656 80.0434 104.068C80.0434 103.606 79.8614 103.34 78.5874 102.892C77.3134 102.43 76.6274 101.898 76.6274 100.736C76.6274 99.518 77.6494 98.72 79.5534 98.72C80.0854 98.72 80.5614 98.748 81.1214 98.818L81.1914 100.036C80.6874 99.966 80.2674 99.91 79.6794 99.91C78.7134 99.91 78.2654 100.176 78.2654 100.722C78.2654 101.226 78.5454 101.478 79.7074 101.898C81.2474 102.444 81.6674 103.018 81.6674 103.97C81.6674 105.37 80.5054 106.098 78.5174 106.098ZM88.4984 106.14C86.6504 106.14 85.4184 105.356 85.4184 103.662C85.4184 102.584 85.9364 101.716 87.4484 100.764C86.7204 99.98 86.3984 99.294 86.3984 98.3C86.3984 96.746 87.5464 95.752 89.2964 95.752C90.9344 95.752 91.7744 96.704 91.7744 97.922C91.7744 99.098 91.2144 99.812 89.4784 100.834L91.5504 102.738C91.8864 102.094 92.1944 101.282 92.4884 100.26L93.8604 100.694C93.4684 101.912 93.0344 102.892 92.5724 103.676L94.2944 105.258L93.3284 106.336L91.7044 104.81C90.7944 105.762 89.7444 106.14 88.4984 106.14ZM87.8544 98.174C87.8544 98.79 88.0784 99.364 88.7084 100.064C89.9404 99.392 90.3464 98.846 90.3464 98.062C90.3464 97.278 89.8984 96.886 89.1704 96.886C88.3864 96.886 87.8544 97.32 87.8544 98.174ZM87.0564 103.41C87.0564 104.39 87.7004 104.88 88.6384 104.88C89.4224 104.88 90.1364 104.614 90.7664 103.914L88.2604 101.562C87.3084 102.206 87.0564 102.696 87.0564 103.41ZM100.263 106H98.6385V96.2H100.263V106ZM105.197 106.112C104.441 106.112 103.811 105.93 103.391 105.524C102.929 105.062 102.691 104.418 102.691 103.13V100.064H101.599V99.014L102.747 98.888L102.957 97.348H104.287V98.818H106.387V100.064H104.287V103.2C104.287 104.446 104.735 104.824 105.533 104.824C105.925 104.824 106.191 104.782 106.471 104.74L106.387 106C106.051 106.056 105.603 106.112 105.197 106.112ZM108.802 97.628C108.186 97.628 107.808 97.264 107.808 96.704C107.808 96.144 108.186 95.78 108.802 95.78C109.404 95.78 109.782 96.144 109.782 96.704C109.782 97.264 109.404 97.628 108.802 97.628ZM108.004 106V98.818H109.586V106H108.004ZM113.332 106H111.75V98.818H113.066L113.22 99.854C113.906 99.084 114.76 98.692 115.768 98.692C116.664 98.692 117.266 98.958 117.644 99.448C118.022 99.952 118.148 100.54 118.148 101.926V106H116.566V102.22C116.566 101.338 116.482 100.932 116.216 100.61C115.95 100.302 115.586 100.162 115.054 100.162C114.396 100.162 113.78 100.428 113.332 100.918V106ZM123.542 106.098C121.036 106.098 119.748 104.852 119.748 102.402C119.748 99.98 121.302 98.678 123.108 98.678C124.97 98.678 125.866 99.868 125.866 101.87C125.866 102.192 125.838 102.514 125.81 102.822H121.358C121.498 104.236 122.324 104.824 123.85 104.824C124.424 104.824 124.97 104.768 125.488 104.67L125.404 105.958C124.928 106.042 124.242 106.098 123.542 106.098ZM123.052 99.882C122.142 99.882 121.456 100.526 121.344 101.926L124.34 101.8C124.34 100.484 123.934 99.882 123.052 99.882ZM129.109 106H127.527V98.818H128.843L129.067 100.372C129.501 99.322 130.425 98.72 131.475 98.72L131.559 100.246C130.467 100.218 129.571 100.68 129.109 101.87V106ZM134.33 106.126C133.056 106.126 132.286 105.454 132.286 104.25C132.286 102.766 133.406 101.912 136.64 101.59C136.598 100.456 135.87 100.036 134.442 100.036C133.938 100.036 133.49 100.078 132.846 100.148L132.944 98.818C133.588 98.748 134.134 98.706 134.778 98.706C137.046 98.706 138.166 99.518 138.166 101.646V106H136.85L136.696 104.754C136.206 105.664 135.352 106.126 134.33 106.126ZM133.798 104.04C133.798 104.698 134.218 104.964 134.834 104.964C135.786 104.964 136.654 104.222 136.64 102.696V102.57C134.344 102.822 133.798 103.298 133.798 104.04ZM141.906 106H140.324V98.818H141.64L141.864 100.372C142.298 99.322 143.222 98.72 144.272 98.72L144.356 100.246C143.264 100.218 142.368 100.68 141.906 101.87V106ZM146.495 97.628C145.879 97.628 145.501 97.264 145.501 96.704C145.501 96.144 145.879 95.78 146.495 95.78C147.097 95.78 147.475 96.144 147.475 96.704C147.475 97.264 147.097 97.628 146.495 97.628ZM145.697 106V98.818H147.279V106H145.697ZM152.677 106.098C150.171 106.098 148.883 104.852 148.883 102.402C148.883 99.98 150.437 98.678 152.243 98.678C154.105 98.678 155.001 99.868 155.001 101.87C155.001 102.192 154.973 102.514 154.945 102.822H150.493C150.633 104.236 151.459 104.824 152.985 104.824C153.559 104.824 154.105 104.768 154.623 104.67L154.539 105.958C154.063 106.042 153.377 106.098 152.677 106.098ZM152.187 99.882C151.277 99.882 150.591 100.526 150.479 101.926L153.475 101.8C153.475 100.484 153.069 99.882 152.187 99.882ZM157.992 106.098C157.432 106.098 156.858 106.056 156.284 105.986L156.214 104.768C156.872 104.866 157.362 104.908 157.824 104.908C158.874 104.908 159.518 104.656 159.518 104.068C159.518 103.606 159.336 103.34 158.062 102.892C156.788 102.43 156.102 101.898 156.102 100.736C156.102 99.518 157.124 98.72 159.028 98.72C159.56 98.72 160.036 98.748 160.596 98.818L160.666 100.036C160.162 99.966 159.742 99.91 159.154 99.91C158.188 99.91 157.74 100.176 157.74 100.722C157.74 101.226 158.02 101.478 159.182 101.898C160.722 102.444 161.142 103.018 161.142 103.97C161.142 105.37 159.98 106.098 157.992 106.098Z" fill="black"/>
<g clip-path="url(#clip0_696_4415)">
<path fill-rule="evenodd" clip-rule="evenodd" d="M57.7817 54.4526C58.2456 49.0669 59.1733 44.6431 63.0308 42.8877C65.2012 49.4502 63.4849 55.7344 60.958 63H64.896C67.3667 51.3765 66.1094 47.1162 64.6055 43.3247C66.981 44.8188 69.0977 48.0439 71.124 53.1562C73.9683 47.8535 72.1616 43.9619 65.4087 41.4326C69.271 40.2388 72.8916 41.7622 76.2876 44.7676C74.4688 37.9146 69.2808 36.2544 64.647 40.168C65.2793 35.2583 63.2529 34.0767 60.5381 33C61.8149 34.9434 62.7842 36.9697 62.6377 39.2988C58.4482 35.4536 54.9644 36.877 51.7441 40.2632C54.8325 39.5405 58.0283 39.2378 60.7261 41.0444C55.8848 40.4292 53.1748 43.1587 51.5 46.7427C53.5264 44.8872 55.4331 43.686 57.4595 43.4663C55.3354 47.3164 56.2754 50.7197 57.7817 54.4526Z" fill="black"/>
</g>
<path d="M182 13.5C182 6.87258 187.373 1.5 194 1.5H229C242.255 1.5 253 12.2452 253 25.5V37.5C253 44.1274 247.627 49.5 241 49.5H194C187.373 49.5 182 44.1274 182 37.5V13.5Z" fill="#E2980B"/>
<path d="M201.94 33.5H198.84V19.5H207.5V22.14H201.94V26.26H206.7V28.78H201.94V33.5ZM212.446 33.5H209.426V23.08H211.966L212.326 25.24C213.006 23.78 214.266 22.9 215.766 22.9L215.926 25.84C214.346 25.78 213.146 26.34 212.446 27.72V33.5ZM222.237 33.66C218.437 33.66 216.537 31.9 216.537 28.26C216.537 24.78 218.897 22.88 221.597 22.88C224.457 22.88 225.837 24.6 225.837 27.6C225.837 28.16 225.797 28.66 225.757 29.16H219.617C219.917 30.72 220.977 31.26 222.917 31.26C223.717 31.26 224.537 31.18 225.237 31.08L225.097 33.46C224.377 33.58 223.397 33.66 222.237 33.66ZM221.517 25.12C220.477 25.12 219.717 25.86 219.557 27.52L222.977 27.34C222.977 25.82 222.517 25.12 221.517 25.12ZM232.999 33.66C229.199 33.66 227.299 31.9 227.299 28.26C227.299 24.78 229.659 22.88 232.359 22.88C235.219 22.88 236.599 24.6 236.599 27.6C236.599 28.16 236.559 28.66 236.519 29.16H230.379C230.679 30.72 231.739 31.26 233.679 31.26C234.479 31.26 235.299 31.18 235.999 31.08L235.859 33.46C235.139 33.58 234.159 33.66 232.999 33.66ZM232.279 25.12C231.239 25.12 230.479 25.86 230.319 27.52L233.739 27.34C233.739 25.82 233.279 25.12 232.279 25.12Z" fill="white"/>
<defs>
<clipPath id="clip0_696_4415">
<rect width="24.7852" height="30" fill="white" transform="translate(51.5 33)"/>
</clipPath>
</defs>
</svg>
