<svg width="272" height="134" viewBox="0 0 272 134" fill="none" xmlns="http://www.w3.org/2000/svg">
<path d="M171 41.3135C171 51.2546 179.059 59.3135 189 59.3135H233C242.941 59.3135 251 67.3724 251 77.3135V104C251 113.941 242.941 122 233 122H39C29.0589 122 21 113.941 21 104V35C21 25.0589 29.0589 17 39 17H153C162.941 17 171 25.0589 171 35V41.3135Z" fill="white"/>
<path d="M57.212 86.14C54.062 86.14 52.06 84.32 52.06 81.156C52.06 77.922 54.09 76.06 57.142 76.06C57.828 76.06 58.458 76.13 58.99 76.214L59.074 77.614C58.388 77.488 57.912 77.446 57.352 77.446C55.042 77.446 53.726 78.678 53.726 81.016C53.726 83.452 55.14 84.754 57.38 84.754C58.052 84.754 58.542 84.698 59.172 84.572L59.074 85.986C58.584 86.084 57.828 86.14 57.212 86.14ZM62.4041 86H60.8221V78.818H62.1381L62.3621 80.372C62.7961 79.322 63.7201 78.72 64.7701 78.72L64.8541 80.246C63.7621 80.218 62.8661 80.68 62.4041 81.87V86ZM69.2378 86.098C66.7318 86.098 65.4438 84.852 65.4438 82.402C65.4438 79.98 66.9978 78.678 68.8038 78.678C70.6658 78.678 71.5618 79.868 71.5618 81.87C71.5618 82.192 71.5338 82.514 71.5058 82.822H67.0538C67.1938 84.236 68.0198 84.824 69.5458 84.824C70.1198 84.824 70.6658 84.768 71.1838 84.67L71.0998 85.958C70.6238 86.042 69.9378 86.098 69.2378 86.098ZM68.7478 79.882C67.8378 79.882 67.1518 80.526 67.0398 81.926L70.0358 81.8C70.0358 80.484 69.6298 79.882 68.7478 79.882ZM74.7065 86.126C73.4325 86.126 72.6625 85.454 72.6625 84.25C72.6625 82.766 73.7825 81.912 77.0165 81.59C76.9745 80.456 76.2465 80.036 74.8185 80.036C74.3145 80.036 73.8665 80.078 73.2225 80.148L73.3205 78.818C73.9645 78.748 74.5105 78.706 75.1545 78.706C77.4225 78.706 78.5425 79.518 78.5425 81.646V86H77.2265L77.0725 84.754C76.5825 85.664 75.7285 86.126 74.7065 86.126ZM74.1745 84.04C74.1745 84.698 74.5945 84.964 75.2105 84.964C76.1625 84.964 77.0305 84.222 77.0165 82.696V82.57C74.7205 82.822 74.1745 83.298 74.1745 84.04ZM83.459 86.112C82.703 86.112 82.073 85.93 81.653 85.524C81.191 85.062 80.953 84.418 80.953 83.13V80.064H79.861V79.014L81.009 78.888L81.219 77.348H82.549V78.818H84.649V80.064H82.549V83.2C82.549 84.446 82.997 84.824 83.795 84.824C84.187 84.824 84.453 84.782 84.733 84.74L84.649 86C84.313 86.056 83.865 86.112 83.459 86.112ZM89.4995 86.098C86.9935 86.098 85.7055 84.852 85.7055 82.402C85.7055 79.98 87.2595 78.678 89.0655 78.678C90.9275 78.678 91.8235 79.868 91.8235 81.87C91.8235 82.192 91.7955 82.514 91.7675 82.822H87.3155C87.4555 84.236 88.2815 84.824 89.8075 84.824C90.3815 84.824 90.9275 84.768 91.4455 84.67L91.3615 85.958C90.8855 86.042 90.1995 86.098 89.4995 86.098ZM89.0095 79.882C88.0995 79.882 87.4135 80.526 87.3015 81.926L90.2975 81.8C90.2975 80.484 89.8915 79.882 89.0095 79.882ZM98.1024 86H96.4784V76.2H99.1244C101.966 76.2 103.128 77.236 103.128 79.336C103.128 81.618 101.714 82.85 98.9704 82.85H98.1024V86ZM99.3624 77.516H98.1024V81.52H99.0264C100.608 81.52 101.49 80.876 101.49 79.42C101.49 78.132 100.804 77.516 99.3624 77.516ZM106.455 86H104.873V78.818H106.189L106.413 80.372C106.847 79.322 107.771 78.72 108.821 78.72L108.905 80.246C107.813 80.218 106.917 80.68 106.455 81.87V86ZM112.967 86.14C110.909 86.14 109.495 84.908 109.495 82.472C109.495 80.036 110.979 78.678 113.037 78.678C115.095 78.678 116.509 79.924 116.509 82.416C116.509 84.796 115.039 86.14 112.967 86.14ZM112.967 84.88C114.073 84.88 114.857 84.068 114.857 82.43C114.857 80.736 114.129 79.924 113.037 79.924C111.931 79.924 111.147 80.736 111.147 82.43C111.147 84.068 111.875 84.88 112.967 84.88ZM120.011 86H118.429V80.064H117.267V79.014L118.429 78.888C118.457 77.614 118.681 76.83 119.227 76.256C119.843 75.612 120.795 75.29 122.055 75.36L122.153 76.69C121.313 76.676 120.795 76.788 120.445 77.152C120.137 77.46 119.997 77.908 119.969 78.818H121.719V80.064H120.011V86ZM126.181 86.098C123.675 86.098 122.387 84.852 122.387 82.402C122.387 79.98 123.941 78.678 125.747 78.678C127.609 78.678 128.505 79.868 128.505 81.87C128.505 82.192 128.477 82.514 128.449 82.822H123.997C124.137 84.236 124.963 84.824 126.489 84.824C127.063 84.824 127.609 84.768 128.127 84.67L128.043 85.958C127.567 86.042 126.881 86.098 126.181 86.098ZM125.691 79.882C124.781 79.882 124.095 80.526 123.983 81.926L126.979 81.8C126.979 80.484 126.573 79.882 125.691 79.882ZM131.496 86.098C130.936 86.098 130.362 86.056 129.788 85.986L129.718 84.768C130.376 84.866 130.866 84.908 131.328 84.908C132.378 84.908 133.022 84.656 133.022 84.068C133.022 83.606 132.84 83.34 131.566 82.892C130.292 82.43 129.606 81.898 129.606 80.736C129.606 79.518 130.628 78.72 132.532 78.72C133.064 78.72 133.54 78.748 134.1 78.818L134.17 80.036C133.666 79.966 133.246 79.91 132.658 79.91C131.692 79.91 131.244 80.176 131.244 80.722C131.244 81.226 131.524 81.478 132.686 81.898C134.226 82.444 134.646 83.018 134.646 83.97C134.646 85.37 133.484 86.098 131.496 86.098ZM137.566 86.098C137.006 86.098 136.432 86.056 135.858 85.986L135.788 84.768C136.446 84.866 136.936 84.908 137.398 84.908C138.448 84.908 139.092 84.656 139.092 84.068C139.092 83.606 138.91 83.34 137.636 82.892C136.362 82.43 135.676 81.898 135.676 80.736C135.676 79.518 136.698 78.72 138.602 78.72C139.134 78.72 139.61 78.748 140.17 78.818L140.24 80.036C139.736 79.966 139.316 79.91 138.728 79.91C137.762 79.91 137.314 80.176 137.314 80.722C137.314 81.226 137.594 81.478 138.756 81.898C140.296 82.444 140.716 83.018 140.716 83.97C140.716 85.37 139.554 86.098 137.566 86.098ZM143.105 77.628C142.489 77.628 142.111 77.264 142.111 76.704C142.111 76.144 142.489 75.78 143.105 75.78C143.707 75.78 144.085 76.144 144.085 76.704C144.085 77.264 143.707 77.628 143.105 77.628ZM142.307 86V78.818H143.889V86H142.307ZM148.965 86.14C146.907 86.14 145.493 84.908 145.493 82.472C145.493 80.036 146.977 78.678 149.035 78.678C151.093 78.678 152.507 79.924 152.507 82.416C152.507 84.796 151.037 86.14 148.965 86.14ZM148.965 84.88C150.071 84.88 150.855 84.068 150.855 82.43C150.855 80.736 150.127 79.924 149.035 79.924C147.929 79.924 147.145 80.736 147.145 82.43C147.145 84.068 147.873 84.88 148.965 84.88ZM155.687 86H154.105V78.818H155.421L155.575 79.854C156.261 79.084 157.115 78.692 158.123 78.692C159.019 78.692 159.621 78.958 159.999 79.448C160.377 79.952 160.503 80.54 160.503 81.926V86H158.921V82.22C158.921 81.338 158.837 80.932 158.571 80.61C158.305 80.302 157.941 80.162 157.409 80.162C156.751 80.162 156.135 80.428 155.687 80.918V86ZM164.148 86.126C162.874 86.126 162.104 85.454 162.104 84.25C162.104 82.766 163.224 81.912 166.458 81.59C166.416 80.456 165.688 80.036 164.26 80.036C163.756 80.036 163.308 80.078 162.664 80.148L162.762 78.818C163.406 78.748 163.952 78.706 164.596 78.706C166.864 78.706 167.984 79.518 167.984 81.646V86H166.668L166.514 84.754C166.024 85.664 165.17 86.126 164.148 86.126ZM163.616 84.04C163.616 84.698 164.036 84.964 164.652 84.964C165.604 84.964 166.472 84.222 166.458 82.696V82.57C164.162 82.822 163.616 83.298 163.616 84.04ZM171.724 86H170.142V75.36H171.724V86ZM55.672 106H52.578V96.2H55.532C57.996 96.2 59.13 97.026 59.13 98.622C59.13 99.826 58.542 100.61 57.282 100.932C58.836 101.184 59.508 101.954 59.508 103.2C59.508 105.188 58.192 106 55.672 106ZM55.518 97.46H54.202V100.442H55.49C56.904 100.442 57.478 99.882 57.478 98.902C57.478 97.95 56.862 97.46 55.518 97.46ZM55.728 101.576H54.202V104.74H55.63C57.17 104.74 57.814 104.236 57.814 103.102C57.814 102.108 57.142 101.576 55.728 101.576ZM61.1503 98.818H62.7323V102.598C62.7323 103.466 62.8163 103.886 63.0823 104.208C63.3483 104.516 63.7123 104.656 64.2583 104.656C64.8323 104.656 65.3783 104.39 65.8123 103.914V98.818H67.3943V106H66.0783L65.9243 104.964C65.2663 105.72 64.5243 106.126 63.5023 106.126C62.6483 106.126 62.0323 105.846 61.6543 105.37C61.2763 104.866 61.1503 104.278 61.1503 102.892V98.818ZM70.8885 106.098C70.3285 106.098 69.7545 106.056 69.1805 105.986L69.1105 104.768C69.7685 104.866 70.2585 104.908 70.7205 104.908C71.7705 104.908 72.4145 104.656 72.4145 104.068C72.4145 103.606 72.2325 103.34 70.9585 102.892C69.6845 102.43 68.9985 101.898 68.9985 100.736C68.9985 99.518 70.0205 98.72 71.9245 98.72C72.4565 98.72 72.9325 98.748 73.4925 98.818L73.5625 100.036C73.0585 99.966 72.6385 99.91 72.0505 99.91C71.0845 99.91 70.6365 100.176 70.6365 100.722C70.6365 101.226 70.9165 101.478 72.0785 101.898C73.6185 102.444 74.0385 103.018 74.0385 103.97C74.0385 105.37 72.8765 106.098 70.8885 106.098ZM76.4268 97.628C75.8108 97.628 75.4328 97.264 75.4328 96.704C75.4328 96.144 75.8108 95.78 76.4268 95.78C77.0288 95.78 77.4068 96.144 77.4068 96.704C77.4068 97.264 77.0288 97.628 76.4268 97.628ZM75.6288 106V98.818H77.2108V106H75.6288ZM80.9569 106H79.3749V98.818H80.6909L80.8449 99.854C81.5309 99.084 82.3849 98.692 83.3929 98.692C84.2889 98.692 84.8909 98.958 85.2689 99.448C85.6469 99.952 85.7729 100.54 85.7729 101.926V106H84.1909V102.22C84.1909 101.338 84.1069 100.932 83.8409 100.61C83.5749 100.302 83.2109 100.162 82.6789 100.162C82.0209 100.162 81.4049 100.428 80.9569 100.918V106ZM91.1675 106.098C88.6615 106.098 87.3735 104.852 87.3735 102.402C87.3735 99.98 88.9275 98.678 90.7335 98.678C92.5955 98.678 93.4915 99.868 93.4915 101.87C93.4915 102.192 93.4635 102.514 93.4355 102.822H88.9835C89.1235 104.236 89.9495 104.824 91.4755 104.824C92.0495 104.824 92.5955 104.768 93.1135 104.67L93.0295 105.958C92.5535 106.042 91.8675 106.098 91.1675 106.098ZM90.6775 99.882C89.7675 99.882 89.0815 100.526 88.9695 101.926L91.9655 101.8C91.9655 100.484 91.5595 99.882 90.6775 99.882ZM96.4822 106.098C95.9222 106.098 95.3482 106.056 94.7742 105.986L94.7042 104.768C95.3622 104.866 95.8522 104.908 96.3142 104.908C97.3642 104.908 98.0082 104.656 98.0082 104.068C98.0082 103.606 97.8262 103.34 96.5522 102.892C95.2782 102.43 94.5922 101.898 94.5922 100.736C94.5922 99.518 95.6142 98.72 97.5182 98.72C98.0502 98.72 98.5262 98.748 99.0862 98.818L99.1562 100.036C98.6522 99.966 98.2322 99.91 97.6442 99.91C96.6782 99.91 96.2302 100.176 96.2302 100.722C96.2302 101.226 96.5102 101.478 97.6722 101.898C99.2122 102.444 99.6322 103.018 99.6322 103.97C99.6322 105.37 98.4702 106.098 96.4822 106.098ZM102.553 106.098C101.993 106.098 101.419 106.056 100.845 105.986L100.775 104.768C101.433 104.866 101.923 104.908 102.385 104.908C103.435 104.908 104.079 104.656 104.079 104.068C104.079 103.606 103.897 103.34 102.623 102.892C101.349 102.43 100.663 101.898 100.663 100.736C100.663 99.518 101.685 98.72 103.589 98.72C104.121 98.72 104.597 98.748 105.157 98.818L105.227 100.036C104.723 99.966 104.303 99.91 103.715 99.91C102.749 99.91 102.301 100.176 102.301 100.722C102.301 101.226 102.581 101.478 103.743 101.898C105.283 102.444 105.703 103.018 105.703 103.97C105.703 105.37 104.541 106.098 102.553 106.098ZM111.911 106H110.287V96.2H112.933C115.775 96.2 116.937 97.236 116.937 99.336C116.937 101.618 115.523 102.85 112.779 102.85H111.911V106ZM113.171 97.516H111.911V101.52H112.835C114.417 101.52 115.299 100.876 115.299 99.42C115.299 98.132 114.613 97.516 113.171 97.516ZM120.264 106H118.682V98.818H119.998L120.222 100.372C120.656 99.322 121.58 98.72 122.63 98.72L122.714 100.246C121.622 100.218 120.726 100.68 120.264 101.87V106ZM126.775 106.14C124.717 106.14 123.303 104.908 123.303 102.472C123.303 100.036 124.787 98.678 126.845 98.678C128.903 98.678 130.317 99.924 130.317 102.416C130.317 104.796 128.847 106.14 126.775 106.14ZM126.775 104.88C127.881 104.88 128.665 104.068 128.665 102.43C128.665 100.736 127.937 99.924 126.845 99.924C125.739 99.924 124.955 100.736 124.955 102.43C124.955 104.068 125.683 104.88 126.775 104.88ZM133.82 106H132.238V100.064H131.076V99.014L132.238 98.902C132.266 97.894 132.406 96.942 133.036 96.256C133.652 95.612 134.548 95.29 135.682 95.36L135.766 96.69C135.024 96.69 134.576 96.816 134.254 97.152C133.974 97.46 133.834 97.894 133.806 98.818H138.3V106H136.718V100.064H133.82V106ZM137.502 97.628C136.9 97.628 136.508 97.264 136.508 96.704C136.508 96.144 136.9 95.78 137.502 95.78C138.104 95.78 138.496 96.144 138.496 96.704C138.496 97.264 138.104 97.628 137.502 97.628ZM142.043 106H140.461V95.36H142.043V106ZM147.441 106.098C144.935 106.098 143.647 104.852 143.647 102.402C143.647 99.98 145.201 98.678 147.007 98.678C148.869 98.678 149.765 99.868 149.765 101.87C149.765 102.192 149.737 102.514 149.709 102.822H145.257C145.397 104.236 146.223 104.824 147.749 104.824C148.323 104.824 148.869 104.768 149.387 104.67L149.303 105.958C148.827 106.042 148.141 106.098 147.441 106.098ZM146.951 99.882C146.041 99.882 145.355 100.526 145.243 101.926L148.239 101.8C148.239 100.484 147.833 99.882 146.951 99.882Z" fill="black"/>
<g clip-path="url(#clip0_696_4405)">
<path fill-rule="evenodd" clip-rule="evenodd" d="M51.5002 52.3445V43.9119H60.0513V36.3269L71.5269 48.1201L60.0513 59.9302V52.3447L51.5002 52.3445ZM74.293 37.1885L69.9768 35.2883L70.0525 32.999H78.4519V47.9988V62.9988H70.0525L69.9766 61.3301L74.293 58.6577V37.1885Z" fill="black"/>
</g>
<path d="M182 13.5C182 6.87258 187.373 1.5 194 1.5H229C242.255 1.5 253 12.2452 253 25.5V37.5C253 44.1274 247.627 49.5 241 49.5H194C187.373 49.5 182 44.1274 182 37.5V13.5Z" fill="#E2980B"/>
<path d="M201.94 33.5H198.84V19.5H207.5V22.14H201.94V26.26H206.7V28.78H201.94V33.5ZM212.446 33.5H209.426V23.08H211.966L212.326 25.24C213.006 23.78 214.266 22.9 215.766 22.9L215.926 25.84C214.346 25.78 213.146 26.34 212.446 27.72V33.5ZM222.237 33.66C218.437 33.66 216.537 31.9 216.537 28.26C216.537 24.78 218.897 22.88 221.597 22.88C224.457 22.88 225.837 24.6 225.837 27.6C225.837 28.16 225.797 28.66 225.757 29.16H219.617C219.917 30.72 220.977 31.26 222.917 31.26C223.717 31.26 224.537 31.18 225.237 31.08L225.097 33.46C224.377 33.58 223.397 33.66 222.237 33.66ZM221.517 25.12C220.477 25.12 219.717 25.86 219.557 27.52L222.977 27.34C222.977 25.82 222.517 25.12 221.517 25.12ZM232.999 33.66C229.199 33.66 227.299 31.9 227.299 28.26C227.299 24.78 229.659 22.88 232.359 22.88C235.219 22.88 236.599 24.6 236.599 27.6C236.599 28.16 236.559 28.66 236.519 29.16H230.379C230.679 30.72 231.739 31.26 233.679 31.26C234.479 31.26 235.299 31.18 235.999 31.08L235.859 33.46C235.139 33.58 234.159 33.66 232.999 33.66ZM232.279 25.12C231.239 25.12 230.479 25.86 230.319 27.52L233.739 27.34C233.739 25.82 233.279 25.12 232.279 25.12Z" fill="white"/>
<defs>
<clipPath id="clip0_696_4405">
<rect width="26.9519" height="30" fill="white" transform="translate(51.5 32.999)"/>
</clipPath>
</defs>
</svg>
