<svg width="272" height="134" viewBox="0 0 272 134" fill="none" xmlns="http://www.w3.org/2000/svg">
<path d="M171 41.3135C171 51.2546 179.059 59.3135 189 59.3135H233C242.941 59.3135 251 67.3724 251 77.3135V104C251 113.941 242.941 122 233 122H39C29.0589 122 21 113.941 21 104V35C21 25.0589 29.0589 17 39 17H153C162.941 17 171 25.0589 171 35V41.3135Z" fill="white"/>
<path d="M53.702 86H52.078V76.2H54.724C57.566 76.2 58.728 77.236 58.728 79.336C58.728 81.618 57.314 82.85 54.57 82.85H53.702V86ZM54.962 77.516H53.702V81.52H54.626C56.208 81.52 57.09 80.876 57.09 79.42C57.09 78.132 56.404 77.516 54.962 77.516ZM60.4725 78.818H62.0545V82.598C62.0545 83.466 62.1385 83.886 62.4045 84.208C62.6705 84.516 63.0345 84.656 63.5805 84.656C64.1545 84.656 64.7005 84.39 65.1345 83.914V78.818H66.7165V86H65.4005L65.2465 84.964C64.5885 85.72 63.8465 86.126 62.8245 86.126C61.9705 86.126 61.3545 85.846 60.9765 85.37C60.5985 84.866 60.4725 84.278 60.4725 82.892V78.818ZM71.7787 86.112C71.2327 86.112 70.6727 86.014 70.1407 85.804L68.8807 86V75.36H70.4627V79.924C70.9807 79.112 71.7367 78.678 72.7307 78.678C74.3267 78.678 75.4047 79.868 75.4047 82.164C75.4047 84.698 73.9487 86.112 71.7787 86.112ZM70.4627 81.394V84.572C70.8687 84.754 71.2747 84.824 71.6527 84.824C72.8987 84.824 73.7527 83.984 73.7527 82.276C73.7527 80.82 73.1227 80.078 72.1707 80.078C71.4287 80.078 70.8547 80.512 70.4627 81.394ZM78.5838 86H77.0018V75.36H78.5838V86ZM81.5459 77.628C80.9299 77.628 80.5519 77.264 80.5519 76.704C80.5519 76.144 80.9299 75.78 81.5459 75.78C82.1479 75.78 82.5259 76.144 82.5259 76.704C82.5259 77.264 82.1479 77.628 81.5459 77.628ZM80.7479 86V78.818H82.3299V86H80.7479ZM87.588 86.098C85.334 86.098 83.934 84.866 83.934 82.416C83.934 80.022 85.418 78.72 87.588 78.72C88.106 78.72 88.498 78.762 88.932 78.832L89.002 80.19C88.652 80.12 88.26 80.078 87.756 80.078C86.398 80.078 85.586 80.82 85.586 82.36C85.586 83.956 86.454 84.74 87.812 84.74C88.316 84.74 88.764 84.684 89.114 84.614L89.044 85.972C88.61 86.056 88.12 86.098 87.588 86.098ZM92.2284 86H90.6464V75.36H92.2284V86ZM93.6225 89.36L93.5245 88.002C94.4905 87.974 95.0505 87.736 95.5265 87.218C95.7365 86.994 95.9465 86.7 96.1425 86.308L93.3985 78.818H95.0505L96.9685 84.18L98.7605 78.818H100.314L97.9065 85.328C97.1785 87.288 96.7025 88.058 96.0165 88.604C95.3585 89.108 94.6725 89.36 93.6225 89.36ZM105.609 86.126C105.007 86.126 104.377 86.084 103.789 86L103.705 84.614C104.363 84.712 104.923 84.768 105.567 84.768C107.275 84.768 108.073 84.278 108.073 83.452C108.073 82.71 107.695 82.332 106.071 81.618C104.363 80.848 103.551 80.162 103.551 78.692C103.551 77.04 104.895 76.088 107.275 76.088C108.031 76.088 108.591 76.158 109.095 76.228L109.193 77.614C108.479 77.502 107.947 77.46 107.247 77.46C105.791 77.46 105.189 77.866 105.189 78.594C105.189 79.364 105.581 79.672 107.261 80.456C109.221 81.38 109.725 82.122 109.725 83.354C109.725 85.118 108.255 86.126 105.609 86.126ZM112.818 86H111.236V75.36H112.818V79.728C113.49 79.042 114.302 78.692 115.254 78.692C116.15 78.692 116.752 78.958 117.13 79.448C117.508 79.952 117.634 80.54 117.634 81.926V86H116.052V82.22C116.052 81.338 115.968 80.932 115.702 80.61C115.436 80.302 115.072 80.162 114.54 80.162C113.882 80.162 113.266 80.428 112.818 80.918V86ZM121.279 86.126C120.005 86.126 119.235 85.454 119.235 84.25C119.235 82.766 120.355 81.912 123.589 81.59C123.547 80.456 122.819 80.036 121.391 80.036C120.887 80.036 120.439 80.078 119.795 80.148L119.893 78.818C120.537 78.748 121.083 78.706 121.727 78.706C123.995 78.706 125.115 79.518 125.115 81.646V86H123.799L123.645 84.754C123.155 85.664 122.301 86.126 121.279 86.126ZM120.747 84.04C120.747 84.698 121.167 84.964 121.783 84.964C122.735 84.964 123.603 84.222 123.589 82.696V82.57C121.293 82.822 120.747 83.298 120.747 84.04ZM128.855 86H127.273V78.818H128.589L128.813 80.372C129.247 79.322 130.171 78.72 131.221 78.72L131.305 80.246C130.213 80.218 129.317 80.68 128.855 81.87V86ZM135.689 86.098C133.183 86.098 131.895 84.852 131.895 82.402C131.895 79.98 133.449 78.678 135.255 78.678C137.117 78.678 138.013 79.868 138.013 81.87C138.013 82.192 137.985 82.514 137.957 82.822H133.505C133.645 84.236 134.471 84.824 135.997 84.824C136.571 84.824 137.117 84.768 137.635 84.67L137.551 85.958C137.075 86.042 136.389 86.098 135.689 86.098ZM135.199 79.882C134.289 79.882 133.603 80.526 133.491 81.926L136.487 81.8C136.487 80.484 136.081 79.882 135.199 79.882ZM141.158 86.126C139.884 86.126 139.114 85.454 139.114 84.25C139.114 82.766 140.234 81.912 143.468 81.59C143.426 80.456 142.698 80.036 141.27 80.036C140.766 80.036 140.318 80.078 139.674 80.148L139.772 78.818C140.416 78.748 140.962 78.706 141.606 78.706C143.874 78.706 144.994 79.518 144.994 81.646V86H143.678L143.524 84.754C143.034 85.664 142.18 86.126 141.158 86.126ZM140.626 84.04C140.626 84.698 141.046 84.964 141.662 84.964C142.614 84.964 143.482 84.222 143.468 82.696V82.57C141.172 82.822 140.626 83.298 140.626 84.04ZM150.05 86.112C149.504 86.112 148.944 86.014 148.412 85.804L147.152 86V75.36H148.734V79.924C149.252 79.112 150.008 78.678 151.002 78.678C152.598 78.678 153.676 79.868 153.676 82.164C153.676 84.698 152.22 86.112 150.05 86.112ZM148.734 81.394V84.572C149.14 84.754 149.546 84.824 149.924 84.824C151.17 84.824 152.024 83.984 152.024 82.276C152.024 80.82 151.394 80.078 150.442 80.078C149.7 80.078 149.126 80.512 148.734 81.394ZM156.855 86H155.273V75.36H156.855V86ZM162.253 86.098C159.747 86.098 158.459 84.852 158.459 82.402C158.459 79.98 160.013 78.678 161.819 78.678C163.681 78.678 164.577 79.868 164.577 81.87C164.577 82.192 164.549 82.514 164.521 82.822H160.069C160.209 84.236 161.035 84.824 162.561 84.824C163.135 84.824 163.681 84.768 164.199 84.67L164.115 85.958C163.639 86.042 162.953 86.098 162.253 86.098ZM161.763 79.882C160.853 79.882 160.167 80.526 160.055 81.926L163.051 81.8C163.051 80.484 162.645 79.882 161.763 79.882ZM174.874 84.614V86H169.232V76.2H170.856V84.614H174.874ZM177.112 77.628C176.496 77.628 176.118 77.264 176.118 76.704C176.118 76.144 176.496 75.78 177.112 75.78C177.714 75.78 178.092 76.144 178.092 76.704C178.092 77.264 177.714 77.628 177.112 77.628ZM176.314 86V78.818H177.896V86H176.314ZM181.642 86H180.06V78.818H181.376L181.53 79.854C182.216 79.084 183.07 78.692 184.078 78.692C184.974 78.692 185.576 78.958 185.954 79.448C186.332 79.952 186.458 80.54 186.458 81.926V86H184.876V82.22C184.876 81.338 184.792 80.932 184.526 80.61C184.26 80.302 183.896 80.162 183.364 80.162C182.706 80.162 182.09 80.428 181.642 80.918V86ZM190.201 86H188.619V75.36H190.201V82.29L192.973 78.818H194.849L192.147 81.968L194.961 86H193.057L190.985 82.892L190.201 83.41V86ZM197.482 86.098C196.922 86.098 196.348 86.056 195.774 85.986L195.704 84.768C196.362 84.866 196.852 84.908 197.314 84.908C198.364 84.908 199.008 84.656 199.008 84.068C199.008 83.606 198.826 83.34 197.552 82.892C196.278 82.43 195.592 81.898 195.592 80.736C195.592 79.518 196.614 78.72 198.518 78.72C199.05 78.72 199.526 78.748 200.086 78.818L200.156 80.036C199.652 79.966 199.232 79.91 198.644 79.91C197.678 79.91 197.23 80.176 197.23 80.722C197.23 81.226 197.51 81.478 198.672 81.898C200.212 82.444 200.632 83.018 200.632 83.97C200.632 85.37 199.47 86.098 197.482 86.098ZM56.18 107.54L55.704 108.338C53.058 107.162 51.56 104.782 51.56 101.688C51.56 98.58 53.002 96.228 55.704 95.024L56.194 95.822C54.248 97.264 53.282 98.958 53.282 101.66C53.282 104.418 54.234 106.098 56.18 107.54ZM58.3882 106.126C57.1142 106.126 56.3442 105.454 56.3442 104.25C56.3442 102.766 57.4642 101.912 60.6982 101.59C60.6562 100.456 59.9282 100.036 58.5002 100.036C57.9962 100.036 57.5482 100.078 56.9042 100.148L57.0022 98.818C57.6462 98.748 58.1922 98.706 58.8362 98.706C61.1042 98.706 62.2242 99.518 62.2242 101.646V106H60.9082L60.7542 104.754C60.2642 105.664 59.4102 106.126 58.3882 106.126ZM57.8562 104.04C57.8562 104.698 58.2762 104.964 58.8922 104.964C59.8442 104.964 60.7122 104.222 60.6982 102.696V102.57C58.4022 102.822 57.8562 103.298 57.8562 104.04ZM65.9647 106H64.3827V98.818H65.6987L65.8527 99.854C66.5387 99.084 67.3927 98.692 68.4007 98.692C69.2967 98.692 69.8987 98.958 70.2767 99.448C70.6547 99.952 70.7807 100.54 70.7807 101.926V106H69.1987V102.22C69.1987 101.338 69.1147 100.932 68.8487 100.61C68.5827 100.302 68.2187 100.162 67.6867 100.162C67.0287 100.162 66.4127 100.428 65.9647 100.918V106ZM72.1713 109.36L72.0733 108.002C73.0393 107.974 73.5993 107.736 74.0753 107.218C74.2853 106.994 74.4953 106.7 74.6913 106.308L71.9473 98.818H73.5993L75.5173 104.18L77.3093 98.818H78.8633L76.4553 105.328C75.7273 107.288 75.2513 108.058 74.5653 108.604C73.9073 109.108 73.2213 109.36 72.1713 109.36ZM83.0717 106.028H81.6437L79.1797 98.818H80.8597C81.3917 100.554 81.9237 102.276 82.4557 104.096C82.9877 102.29 83.5337 100.554 84.0657 98.818H85.5077C86.0817 100.596 86.6697 102.388 87.2157 104.25C87.8037 102.388 88.3357 100.596 88.8677 98.818H90.3097L87.8457 106.028H86.3477C85.8437 104.418 85.2977 102.682 84.7377 100.96C84.1777 102.682 83.6317 104.418 83.0717 106.028ZM93.0623 106H91.4803V95.36H93.0623V99.728C93.7343 99.042 94.5463 98.692 95.4983 98.692C96.3943 98.692 96.9963 98.958 97.3743 99.448C97.7523 99.952 97.8783 100.54 97.8783 101.926V106H96.2963V102.22C96.2963 101.338 96.2123 100.932 95.9463 100.61C95.6803 100.302 95.3163 100.162 94.7843 100.162C94.1263 100.162 93.5103 100.428 93.0623 100.918V106ZM103.273 106.098C100.767 106.098 99.4789 104.852 99.4789 102.402C99.4789 99.98 101.033 98.678 102.839 98.678C104.701 98.678 105.597 99.868 105.597 101.87C105.597 102.192 105.569 102.514 105.541 102.822H101.089C101.229 104.236 102.055 104.824 103.581 104.824C104.155 104.824 104.701 104.768 105.219 104.67L105.135 105.958C104.659 106.042 103.973 106.098 103.273 106.098ZM102.783 99.882C101.873 99.882 101.187 100.526 101.075 101.926L104.071 101.8C104.071 100.484 103.665 99.882 102.783 99.882ZM108.84 106H107.258V98.818H108.574L108.798 100.372C109.232 99.322 110.156 98.72 111.206 98.72L111.29 100.246C110.198 100.218 109.302 100.68 108.84 101.87V106ZM115.673 106.098C113.167 106.098 111.879 104.852 111.879 102.402C111.879 99.98 113.433 98.678 115.239 98.678C117.101 98.678 117.997 99.868 117.997 101.87C117.997 102.192 117.969 102.514 117.941 102.822H113.489C113.629 104.236 114.455 104.824 115.981 104.824C116.555 104.824 117.101 104.768 117.619 104.67L117.535 105.958C117.059 106.042 116.373 106.098 115.673 106.098ZM115.183 99.882C114.273 99.882 113.587 100.526 113.475 101.926L116.471 101.8C116.471 100.484 116.065 99.882 115.183 99.882ZM117.957 95.794L118.433 94.996C121.079 96.172 122.577 98.552 122.577 101.646C122.577 104.754 121.135 107.106 118.433 108.31L117.943 107.512C119.889 106.07 120.855 104.376 120.855 101.674C120.855 98.916 119.903 97.236 117.957 95.794Z" fill="black"/>
<g clip-path="url(#clip0_696_4425)">
<path d="M68.9245 55.6244C68.5175 56.0722 68.08 56.4913 67.6151 56.8787C67.748 56.8611 67.881 56.8386 68.0139 56.8135C68.3734 56.7419 68.7241 56.6317 69.06 56.4848C69.1453 56.4497 69.2306 56.4096 69.3109 56.372C69.3704 56.449 69.4395 56.5181 69.5166 56.5777C69.5925 56.6404 69.6769 56.6919 69.7674 56.7307C69.6018 56.8185 69.4313 56.8988 69.2657 56.9815C68.8945 57.1389 68.5077 57.2566 68.1118 57.3327C67.3108 57.49 66.4869 57.49 65.686 57.3327C65.2996 57.2551 64.9222 57.1383 64.5596 56.984C64.5547 56.9854 64.5495 56.9854 64.5446 56.984C64.1866 56.8295 63.8432 56.6431 63.5186 56.4271C63.1968 56.2139 62.8976 55.9685 62.6255 55.6946C62.3519 55.4239 62.1073 55.1255 61.8955 54.8041C61.6783 54.4798 61.4911 54.1364 61.3361 53.7781C61.1802 53.4105 61.0617 53.0281 60.9824 52.6367C60.9055 52.2365 60.8669 51.83 60.867 51.4225C60.8666 51.0158 60.9061 50.61 60.9849 50.2109C61.0622 49.8245 61.179 49.447 61.3336 49.0846C61.3325 49.0822 61.3319 49.0796 61.3319 49.077C61.3319 49.0744 61.3325 49.0719 61.3336 49.0695C61.4871 48.7102 61.6735 48.3659 61.8905 48.041C62.1038 47.72 62.3492 47.4216 62.623 47.1505C62.893 46.8753 63.1915 46.6298 63.5135 46.4179C63.8386 46.1969 64.1838 46.0071 64.5446 45.851C64.9107 45.6928 65.2924 45.5734 65.6835 45.4948C66.0833 45.4159 66.49 45.3764 66.8976 45.3769C67.3045 45.3761 67.7105 45.4164 68.1092 45.4973C68.4958 45.5729 68.8733 45.6889 69.2356 45.8435H69.2507C69.6087 46.0004 69.9528 46.1876 70.2792 46.4029C70.5995 46.6161 70.8978 46.8606 71.1697 47.1329C71.4427 47.4041 71.6873 47.7025 71.8997 48.0234C72.1197 48.3487 72.3087 48.6939 72.4641 49.0545C72.6224 49.4234 72.7426 49.8075 72.8229 50.2009C72.8683 50.4246 72.9009 50.6507 72.9207 50.8782L72.3738 50.7327C72.3563 50.5897 72.3337 50.4467 72.3061 50.3062C72.235 49.9508 72.1274 49.6036 71.985 49.2702C71.8956 49.0601 71.7934 48.8557 71.6789 48.6581H69.9229C70.2213 49.1588 70.4492 49.6982 70.6003 50.2611L70.0057 50.103C69.8345 49.5933 69.5984 49.1076 69.3033 48.6581H67.166V49.6415C67.1261 49.6639 67.0883 49.6899 67.0531 49.7192C67.0255 49.7418 66.9954 49.7669 66.9704 49.792C66.9351 49.829 66.9024 49.8684 66.8725 49.9099C66.8263 49.9784 66.7892 50.0526 66.7621 50.1306C66.7338 50.2115 66.7169 50.2959 66.712 50.3815C66.7032 50.4489 66.7032 50.5172 66.712 50.5847C66.7215 50.6407 66.7349 50.6961 66.7521 50.7502V50.7653C66.7527 50.7762 66.7527 50.7871 66.7521 50.7979C66.7565 50.8099 66.7615 50.8216 66.7672 50.833L67.146 51.6885V54.1795H68.2573L68.4906 54.7088H67.166V56.5701C67.7145 56.1252 68.2239 55.6343 68.6887 55.1026L68.9245 55.6369V55.6244ZM57.8467 47.7074C57.8101 47.7963 57.7557 47.8769 57.6868 47.9441C57.618 48.0113 57.5362 48.0638 57.4464 48.0983C57.3566 48.1329 57.2607 48.1487 57.1646 48.1449C57.0684 48.1411 56.9741 48.1177 56.8873 48.0762C56.8005 48.0347 56.7231 47.9759 56.6598 47.9034C56.5965 47.831 56.5486 47.7464 56.5191 47.6548C56.4897 47.5632 56.4792 47.4666 56.4883 47.3708C56.4975 47.275 56.5261 47.1821 56.5723 47.0978C57.3175 45.5413 58.3998 44.1703 59.7407 43.0841C59.8871 42.9787 60.0683 42.9334 60.2471 42.9572C60.426 42.9811 60.5889 43.0724 60.7027 43.2124C60.8164 43.3524 60.8724 43.5306 60.8591 43.7105C60.8458 43.8905 60.7643 44.0585 60.6312 44.1803C59.4515 45.1335 58.5 46.3386 57.8467 47.7074ZM75.6575 56.3569C76.2847 58.2007 78.0758 58.1505 78.6277 56.3569C79.167 56.8411 80.755 56.9364 81.347 57.265C81.5412 57.3677 81.712 57.5095 81.8487 57.6814C82.0724 57.9981 82.1996 58.3727 82.2149 58.7601L82.3379 59.7109C82.3363 59.7835 82.3202 59.855 82.2905 59.9213C82.2609 59.9875 82.2183 60.0472 82.1652 60.0967C82.1121 60.1463 82.0497 60.1847 81.9815 60.2098C81.9134 60.2349 81.8409 60.246 81.7684 60.2427H72.5218C72.4495 60.2457 72.3773 60.2343 72.3095 60.2091C72.2416 60.1838 72.1795 60.1453 72.1267 60.0958C72.0739 60.0463 72.0315 59.9867 72.002 59.9206C71.9725 59.8545 71.9565 59.7832 71.9549 59.7109L72.0703 58.7626C72.0876 58.3752 72.2156 58.0009 72.439 57.6839C72.5757 57.512 72.7466 57.3702 72.9408 57.2675C73.5353 56.9364 75.1232 56.8411 75.66 56.3569H75.6575ZM55.2027 56.3569C55.8273 58.2007 57.6209 58.1505 58.1728 56.3569C58.7096 56.8411 60.2976 56.9364 60.8896 57.265C61.0838 57.3677 61.2546 57.5095 61.3913 57.6814C61.615 57.9981 61.7422 58.3727 61.7575 58.7601L61.8805 59.7109C61.8789 59.7832 61.8628 59.8545 61.8333 59.9206C61.8038 59.9867 61.7615 60.0463 61.7087 60.0958C61.6559 60.1453 61.5937 60.1838 61.5259 60.2091C61.458 60.2343 61.3858 60.2457 61.3135 60.2427H52.0694C51.9971 60.246 51.9249 60.2349 51.8569 60.21C51.7889 60.1851 51.7266 60.1469 51.6736 60.0976C51.6205 60.0483 51.5779 59.989 51.5481 59.923C51.5183 59.857 51.5019 59.7857 51.5 59.7134L51.6229 58.7626C51.6419 58.3739 51.7735 57.9992 52.0017 57.6839C52.1384 57.512 52.3092 57.3702 52.5034 57.2675C53.0955 56.9364 54.6859 56.8411 55.2227 56.3569H55.2027ZM54.8088 53.3316C54.8723 53.3466 54.9385 53.3466 55.002 53.3316L54.8866 52.579C54.9321 52.38 55.0251 52.195 55.1575 52.0397C55.2851 51.9067 55.4523 51.8187 55.6341 51.7888C55.885 51.7712 55.9653 51.9544 56.2136 52.1174C56.9111 52.5794 57.7356 52.8118 58.5717 52.7822L58.4538 53.1986C58.4358 53.2251 58.4278 53.2571 58.4312 53.2889C58.4312 53.2889 58.4312 53.2889 58.4312 53.3065L58.4161 53.3868H58.4914C58.516 53.4023 58.5451 53.4094 58.5742 53.4068C58.7372 53.3918 58.8401 53.4068 58.8652 53.4645C58.8903 53.5222 58.8652 53.6903 58.7623 53.9361L58.2481 54.784C58.076 55.1003 57.8625 55.3921 57.6134 55.652C57.4903 55.7718 57.3446 55.8661 57.1849 55.9294C57.0252 55.9927 56.8545 56.0237 56.6827 56.0208C56.3542 56.0227 56.0381 55.8957 55.8022 55.667C55.5632 55.4247 55.3566 55.1523 55.1876 54.8568L54.7285 54.1243C54.6108 53.969 54.5356 53.7857 54.5103 53.5925C54.5073 53.5505 54.5142 53.5084 54.5304 53.4695C54.5444 53.4379 54.5681 53.4115 54.5981 53.3943C54.6627 53.3535 54.7374 53.3318 54.8138 53.3316H54.8088ZM58.8903 53.1585L58.9178 52.155C58.9042 51.7392 58.7463 51.341 58.4713 51.0287C57.8442 50.3489 56.6752 50.1758 55.7897 50.4944C55.6439 50.5468 55.5043 50.6149 55.3732 50.6976C54.9989 50.9238 54.7225 51.2817 54.5981 51.701C54.5714 51.7989 54.5521 51.8987 54.5404 51.9995C54.5226 52.3784 54.5302 52.758 54.563 53.1359C54.5233 53.1519 54.4854 53.1721 54.4501 53.1961C54.3802 53.2409 54.3252 53.3056 54.292 53.3817C54.2568 53.4604 54.2413 53.5465 54.2469 53.6326C54.2674 53.8747 54.3542 54.1064 54.4977 54.3024L54.9568 55.0324C55.1388 55.3478 55.3614 55.638 55.6191 55.8953C55.9027 56.17 56.2829 56.3223 56.6777 56.3193C56.8829 56.3231 57.0869 56.286 57.2777 56.2102C57.4685 56.1344 57.6423 56.0214 57.789 55.8778C58.0567 55.602 58.2862 55.2915 58.4713 54.9546L59.0031 54.0716V54.054C59.1461 53.7279 59.1762 53.5047 59.1035 53.3541C59.0816 53.3098 59.0507 53.2706 59.0126 53.239C58.9746 53.2075 58.9303 53.1843 58.8827 53.171L58.8903 53.1585ZM65.3624 36.0099C65.4235 36.0239 65.4869 36.0239 65.548 36.0099L65.4301 35.2573C65.4727 35.0575 65.5669 34.8724 65.7035 34.7205C65.8305 34.5867 65.998 34.4985 66.1802 34.4696C66.431 34.4521 66.5088 34.6352 66.7596 34.7957C67.4572 35.2577 68.2816 35.4901 69.1177 35.4605L68.9998 35.8769C68.9824 35.9037 68.9745 35.9355 68.9772 35.9672C68.9772 35.9672 68.9772 35.9798 68.9772 35.9848L68.9622 36.0676H69.0349C69.0603 36.0835 69.0903 36.0906 69.1202 36.0877C69.2833 36.0726 69.3711 36.0877 69.4112 36.1403C69.4513 36.193 69.4112 36.3686 69.3083 36.6119L68.8091 37.4523C68.636 37.7677 68.4217 38.0587 68.172 38.3178C68.0495 38.4379 67.9044 38.5323 67.745 38.5957C67.5857 38.659 67.4153 38.6899 67.2438 38.6865C66.9153 38.6885 66.5991 38.5615 66.3633 38.3328C66.1189 38.0898 65.9088 37.8147 65.7386 37.515L65.2796 36.7825C65.1619 36.6308 65.0858 36.4509 65.0588 36.2607C65.0561 36.2188 65.0629 36.1767 65.0789 36.1378C65.0921 36.1071 65.115 36.0815 65.1441 36.0651C65.2097 36.0244 65.2852 36.0026 65.3624 36.0024V36.0099ZM65.7512 39.0202C66.3783 40.864 68.1695 40.8163 68.7239 39.0202C69.2607 39.5043 70.8511 39.6022 71.4406 39.9308C71.6356 40.0312 71.8067 40.1724 71.9423 40.3447C72.1661 40.6613 72.2933 41.036 72.3086 41.4234L72.4315 42.3766C72.4293 42.4489 72.4127 42.52 72.3828 42.5858C72.3529 42.6516 72.3102 42.7109 72.2572 42.7601C72.2043 42.8093 72.1421 42.8476 72.0743 42.8726C72.0064 42.8976 71.9343 42.909 71.8621 42.9059H62.6205C62.5483 42.909 62.4761 42.8976 62.4083 42.8726C62.3405 42.8476 62.2783 42.8093 62.2253 42.7601C62.1724 42.7109 62.1297 42.6516 62.0998 42.5858C62.0699 42.52 62.0533 42.4489 62.0511 42.3766L62.174 41.4234C62.1884 41.0378 62.3148 40.6647 62.5377 40.3497C62.6732 40.1772 62.8443 40.036 63.0394 39.9358C63.6289 39.6072 65.2219 39.5093 65.7562 39.0252L65.7512 39.0202ZM69.4438 35.8293L69.4714 34.8258C69.4574 34.4096 69.2986 34.0112 69.0224 33.6995C68.3952 32.9996 67.2262 32.8365 66.3432 33.1551C66.1964 33.207 66.0559 33.2752 65.9243 33.3583C65.5534 33.5803 65.2774 33.9314 65.1491 34.3442C65.1223 34.4419 65.1038 34.5418 65.0939 34.6427C65.0766 35.0224 65.0833 35.4028 65.114 35.7816C65.0742 35.7963 65.0363 35.8156 65.0011 35.8393C64.933 35.8862 64.8785 35.9502 64.8431 36.0249C64.8096 36.0989 64.7933 36.1795 64.7954 36.2607C64.8196 36.5041 64.9108 36.7359 65.0588 36.9305L65.5179 37.6605C65.6996 37.9753 65.9233 38.2639 66.1827 38.5185C66.4663 38.7932 66.8465 38.9454 67.2413 38.9424C67.4453 38.9485 67.6486 38.9142 67.8393 38.8414C68.03 38.7687 68.2045 38.6589 68.3526 38.5185C68.6201 38.2431 68.8488 37.9325 69.0324 37.5953L69.5617 36.7273V36.7123C69.7047 36.3862 69.7373 36.1604 69.6621 36.0099C69.6406 35.966 69.61 35.9272 69.5724 35.896C69.5348 35.8649 69.4909 35.8421 69.4438 35.8293ZM75.2637 53.3316C75.1889 53.3324 75.1155 53.3523 75.0505 53.3893C75.0229 53.4086 75.0005 53.4345 74.9852 53.4645C74.9683 53.5032 74.9614 53.5454 74.9652 53.5874C74.9889 53.7803 75.0643 53.9632 75.1834 54.1168L75.6425 54.8493C75.8129 55.1445 76.0203 55.4167 76.2596 55.6595C76.4955 55.8882 76.8116 56.0152 77.1401 56.0132C77.4869 56.0184 77.8216 55.8858 78.0708 55.6445C78.3197 55.3844 78.5331 55.0926 78.7055 54.7765L79.2222 53.9261C79.3301 53.6752 79.3627 53.5272 79.3251 53.4545C79.2874 53.3817 79.1971 53.3842 79.0341 53.3968C79.0043 53.3989 78.9745 53.3919 78.9488 53.3767H78.876L78.8911 53.2964C78.8897 53.2907 78.8897 53.2847 78.8911 53.2789C78.8877 53.2471 78.8957 53.2151 78.9137 53.1886L79.0316 52.7722C78.1956 52.8004 77.3716 52.5681 76.6735 52.1074C76.4227 51.9443 76.3474 51.7612 76.094 51.7788C75.9126 51.8097 75.7457 51.8976 75.6174 52.0296C75.4826 52.1828 75.3886 52.3674 75.344 52.5665L75.4619 53.319C75.3968 53.3354 75.3287 53.3354 75.2637 53.319V53.3316ZM79.3451 53.1585C79.3926 53.1706 79.4368 53.193 79.4746 53.2243C79.5123 53.2555 79.5426 53.2947 79.5634 53.3391C79.6386 53.4896 79.6085 53.7154 79.4656 54.039V54.0565L78.9413 54.917C78.7566 55.2535 78.528 55.564 78.2614 55.8401C78.1151 55.9842 77.9413 56.0975 77.7505 56.1733C77.5596 56.2492 77.3555 56.286 77.1501 56.2816C76.7527 56.2866 76.3695 56.1342 76.084 55.8577C75.8261 55.5996 75.6035 55.3086 75.4217 54.9922L74.9627 54.2648C74.8215 54.0675 74.735 53.8364 74.7118 53.595C74.7058 53.5086 74.7222 53.4222 74.7595 53.3441C74.794 53.2688 74.8487 53.2046 74.9175 53.1585C74.9529 53.1359 74.9897 53.1158 75.0279 53.0983C74.9959 52.7203 74.9892 52.3407 75.0078 51.9619C75.0175 51.861 75.0359 51.7611 75.063 51.6634C75.1896 51.2451 75.4654 50.888 75.8382 50.6599C75.9701 50.5773 76.1105 50.5092 76.2571 50.4567C77.1401 50.1382 78.3091 50.3112 78.9362 50.9911C79.2149 51.3013 79.3741 51.7006 79.3853 52.1174L79.3451 53.1585ZM73.9893 44.2882C73.9183 44.2287 73.8598 44.1558 73.8169 44.0737C73.7741 43.9916 73.7479 43.9019 73.7397 43.8097C73.7315 43.7174 73.7416 43.6245 73.7694 43.5361C73.7972 43.4478 73.8421 43.3658 73.9015 43.2948C73.961 43.2238 74.0339 43.1652 74.116 43.1224C74.1981 43.0795 74.2878 43.0533 74.3801 43.0451C74.4723 43.037 74.5652 43.0471 74.6536 43.0748C74.7419 43.1026 74.8239 43.1475 74.8949 43.207C75.0379 43.3274 75.1458 43.4227 75.2361 43.5005C75.3264 43.5782 75.4443 43.6961 75.5622 43.809C75.9874 44.2265 76.3799 44.6761 76.7362 45.1536C77.0918 45.6308 77.4113 46.134 77.692 46.6588C77.7795 46.8251 77.7973 47.0194 77.7416 47.1988C77.6858 47.3783 77.5611 47.5283 77.3947 47.6158C77.2284 47.7033 77.0341 47.7211 76.8546 47.6654C76.6752 47.6096 76.5252 47.4849 76.4377 47.3185C76.1948 46.8558 75.9146 46.4137 75.5998 45.9965C75.2903 45.581 74.9489 45.1902 74.5789 44.8275C74.4961 44.7422 74.3982 44.6544 74.2929 44.5566L73.9994 44.3057L73.9893 44.2882ZM70.4949 61.053C70.6729 60.9934 70.8672 61.007 71.0352 61.0907C71.2031 61.1745 71.3309 61.3215 71.3905 61.4995C71.45 61.6774 71.4364 61.8718 71.3527 62.0397C71.2689 62.2077 71.1219 62.3355 70.9439 62.395C70.3496 62.5958 69.7396 62.7468 69.1202 62.8466C67.2235 63.1566 65.2796 62.9937 63.4609 62.3725C63.2907 62.3056 63.153 62.1757 63.0762 62.0099C62.9994 61.844 62.9896 61.6549 63.0488 61.4819C63.1079 61.309 63.2315 61.1655 63.3938 61.0814C63.556 60.9973 63.7445 60.979 63.9199 61.0304C65.517 61.5756 67.2236 61.7195 68.8894 61.4493C69.4347 61.362 69.9717 61.2294 70.4949 61.053ZM72.7526 55.4588C72.7181 55.4939 72.6773 55.522 72.6322 55.5416C72.5867 55.5638 72.5372 55.5765 72.4867 55.5792C72.4326 55.5846 72.3779 55.5786 72.3262 55.5617C72.2742 55.5463 72.2263 55.5198 72.1857 55.4839L71.1973 54.6711L70.7909 55.652C70.7592 55.7302 70.7197 55.805 70.673 55.8753C70.6307 55.9401 70.5801 55.9991 70.5225 56.0509C70.48 56.0886 70.4328 56.1206 70.382 56.1462C70.3345 56.1695 70.2838 56.1856 70.2315 56.1938C70.1718 56.2051 70.1106 56.2051 70.0509 56.1938C69.9917 56.1757 69.9365 56.1468 69.8878 56.1086C69.843 56.0723 69.8033 56.0301 69.7699 55.9831C69.7343 55.9316 69.7033 55.877 69.6771 55.8201C68.9245 54.1168 68.0215 52.2855 67.3466 50.5696C67.3382 50.547 67.3323 50.5234 67.3291 50.4994C67.3266 50.476 67.3266 50.4525 67.3291 50.4292C67.332 50.401 67.3379 50.3733 67.3466 50.3464C67.3566 50.3193 67.3692 50.2932 67.3843 50.2686C67.3928 50.258 67.4021 50.248 67.4119 50.2385C67.4207 50.2288 67.4309 50.2204 67.442 50.2134C67.4596 50.1986 67.479 50.186 67.4997 50.1758C67.5193 50.1657 67.5405 50.159 67.5624 50.1557C67.5815 50.1533 67.6009 50.1533 67.6201 50.1557C67.6409 50.1531 67.662 50.1531 67.6828 50.1557H67.7054C69.5617 50.5972 71.4181 51.119 73.2619 51.6082C73.3223 51.6245 73.381 51.6464 73.4375 51.6734C73.4886 51.6984 73.5359 51.7305 73.5779 51.7687C73.624 51.8104 73.6615 51.8607 73.6883 51.9167C73.714 51.9718 73.7276 52.0316 73.7284 52.0923C73.7308 52.1451 73.7231 52.1979 73.7059 52.2479C73.6903 52.3021 73.6666 52.3537 73.6356 52.4009C73.5942 52.4664 73.5435 52.5255 73.4851 52.5765C73.4225 52.634 73.3545 52.6852 73.2819 52.7295C72.9784 52.9076 72.6774 53.0958 72.3763 53.2789L73.3622 54.0967C73.4032 54.1322 73.4365 54.1757 73.46 54.2246C73.4829 54.2709 73.4966 54.3211 73.5002 54.3726C73.5051 54.4258 73.5 54.4794 73.4851 54.5307C73.469 54.5813 73.4444 54.6288 73.4124 54.6711C73.203 54.942 72.9794 55.2016 72.7426 55.4488L72.7526 55.4588ZM72.4416 55.075L73.001 54.4178L71.8144 53.4144L71.7943 53.3943L71.7718 53.3617C71.741 53.3067 71.7321 53.2423 71.7467 53.1811C71.7535 53.1503 71.7666 53.1212 71.7851 53.0958C71.8037 53.0703 71.8273 53.0489 71.8545 53.033C72.2409 52.8173 72.6473 52.5665 73.0336 52.3156C73.076 52.2896 73.1163 52.2602 73.154 52.2278C73.182 52.2012 73.2072 52.1718 73.2292 52.14C73.2362 52.1311 73.2413 52.1208 73.2443 52.1099L73.2117 52.0923C73.1877 52.081 73.1624 52.0725 73.1364 52.0672L67.9311 50.6926L70.1186 55.6144C70.1296 55.6386 70.1421 55.6621 70.1562 55.6846L70.1763 55.7097L70.2039 55.6871C70.2319 55.6612 70.2563 55.6316 70.2767 55.5993C70.3037 55.5574 70.3264 55.5129 70.3444 55.4664L70.8687 54.182C70.8713 54.1729 70.8756 54.1644 70.8812 54.1569L70.9013 54.1318C70.9439 54.0862 71.0019 54.0582 71.064 54.0531C71.1262 54.048 71.188 54.0662 71.2374 54.1042L72.4416 55.075ZM66.1927 56.8737C65.4175 56.2419 64.73 55.5096 64.1482 54.6962H62.4775C62.6374 54.9148 62.8144 55.1203 63.0068 55.3108C63.2542 55.5587 63.5257 55.7814 63.8171 55.9756C64.1149 56.1737 64.4317 56.3418 64.7628 56.4773C65.0959 56.6228 65.4431 56.7338 65.7989 56.8084C65.9293 56.8335 66.0648 56.8561 66.1977 56.8737H66.1927ZM62.1288 54.1694H63.8096C63.3593 53.4129 63.101 52.5577 63.057 51.6784H61.4013C61.415 51.9615 61.4494 52.2432 61.5042 52.5213C61.5733 52.8813 61.681 53.2329 61.8253 53.5699C61.9148 53.7795 62.0162 53.9838 62.1288 54.182V54.1694ZM61.4013 51.1591H63.072C63.1514 50.2763 63.4338 49.4237 63.8974 48.6681H62.1288C62.0162 48.8663 61.9148 49.0706 61.8253 49.2802C61.683 49.6113 61.5746 49.9559 61.5017 50.3087C61.4462 50.5866 61.4127 50.8685 61.4013 51.1516V51.1591ZM62.475 48.1489H64.231C64.8052 47.3443 65.4739 46.6115 66.2228 45.9664C66.0723 45.984 65.9293 46.0065 65.7863 46.0341C65.4313 46.105 65.0848 46.2135 64.7528 46.3577C64.4229 46.4959 64.1064 46.6638 63.8071 46.8595C63.5156 47.0537 63.2442 47.2764 62.9968 47.5242C62.8038 47.7133 62.6267 47.918 62.4675 48.1363L62.475 48.1489ZM67.5749 45.9664C68.3221 46.6043 68.9893 47.3303 69.5617 48.1288H71.3177C70.9484 47.6282 70.4952 47.1954 69.9781 46.8494C69.6797 46.6522 69.363 46.4842 69.0324 46.3477C68.7027 46.2082 68.3598 46.1023 68.0089 46.0316C67.8634 46.004 67.7179 45.9815 67.5749 45.9639V45.9664ZM67.166 46.295V48.1338H68.922C68.4012 47.4624 67.8127 46.8463 67.166 46.295ZM66.6367 56.5576V54.6962H64.7954C65.334 55.3868 65.952 56.0116 66.6367 56.5576ZM66.6367 54.1694V51.6784H63.5888C63.6418 52.5681 63.93 53.4277 64.4242 54.1694H66.6367ZM66.6367 51.1591V48.6581H64.517C64.0104 49.4001 63.695 50.2558 63.5988 51.1491L66.6367 51.1591ZM66.6367 48.1489V46.295C65.99 46.8463 65.4016 47.4624 64.8807 48.1338L66.6367 48.1489Z" fill="black"/>
</g>
<path d="M182 13.5C182 6.87258 187.373 1.5 194 1.5H229C242.255 1.5 253 12.2452 253 25.5V37.5C253 44.1274 247.627 49.5 241 49.5H194C187.373 49.5 182 44.1274 182 37.5V13.5Z" fill="#E2980B"/>
<path d="M201.94 33.5H198.84V19.5H207.5V22.14H201.94V26.26H206.7V28.78H201.94V33.5ZM212.446 33.5H209.426V23.08H211.966L212.326 25.24C213.006 23.78 214.266 22.9 215.766 22.9L215.926 25.84C214.346 25.78 213.146 26.34 212.446 27.72V33.5ZM222.237 33.66C218.437 33.66 216.537 31.9 216.537 28.26C216.537 24.78 218.897 22.88 221.597 22.88C224.457 22.88 225.837 24.6 225.837 27.6C225.837 28.16 225.797 28.66 225.757 29.16H219.617C219.917 30.72 220.977 31.26 222.917 31.26C223.717 31.26 224.537 31.18 225.237 31.08L225.097 33.46C224.377 33.58 223.397 33.66 222.237 33.66ZM221.517 25.12C220.477 25.12 219.717 25.86 219.557 27.52L222.977 27.34C222.977 25.82 222.517 25.12 221.517 25.12ZM232.999 33.66C229.199 33.66 227.299 31.9 227.299 28.26C227.299 24.78 229.659 22.88 232.359 22.88C235.219 22.88 236.599 24.6 236.599 27.6C236.599 28.16 236.559 28.66 236.519 29.16H230.379C230.679 30.72 231.739 31.26 233.679 31.26C234.479 31.26 235.299 31.18 235.999 31.08L235.859 33.46C235.139 33.58 234.159 33.66 232.999 33.66ZM232.279 25.12C231.239 25.12 230.479 25.86 230.319 27.52L233.739 27.34C233.739 25.82 233.279 25.12 232.279 25.12Z" fill="white"/>
<defs>
<clipPath id="clip0_696_4425">
<rect width="30.8253" height="30" fill="white" transform="translate(51.5 33)"/>
</clipPath>
</defs>
</svg>
