<svg width="272" height="134" viewBox="0 0 272 134" fill="none" xmlns="http://www.w3.org/2000/svg">
<path d="M171 41.3135C171 51.2546 179.059 59.3135 189 59.3135H233C242.941 59.3135 251 67.3724 251 77.3135V104C251 113.941 242.941 122 233 122H39C29.0589 122 21 113.941 21 104V35C21 25.0589 29.0589 17 39 17H153C162.941 17 171 25.0589 171 35V41.3135Z" fill="white"/>
<path d="M55.672 86H52.578V76.2H55.532C57.996 76.2 59.13 77.026 59.13 78.622C59.13 79.826 58.542 80.61 57.282 80.932C58.836 81.184 59.508 81.954 59.508 83.2C59.508 85.188 58.192 86 55.672 86ZM55.518 77.46H54.202V80.442H55.49C56.904 80.442 57.478 79.882 57.478 78.902C57.478 77.95 56.862 77.46 55.518 77.46ZM55.728 81.576H54.202V84.74H55.63C57.17 84.74 57.814 84.236 57.814 83.102C57.814 82.108 57.142 81.576 55.728 81.576ZM62.7323 86H61.1503V78.818H62.4663L62.6903 80.372C63.1243 79.322 64.0483 78.72 65.0983 78.72L65.1823 80.246C64.0903 80.218 63.1943 80.68 62.7323 81.87V86ZM67.9526 86.126C66.6786 86.126 65.9086 85.454 65.9086 84.25C65.9086 82.766 67.0286 81.912 70.2626 81.59C70.2206 80.456 69.4926 80.036 68.0646 80.036C67.5606 80.036 67.1126 80.078 66.4686 80.148L66.5666 78.818C67.2106 78.748 67.7566 78.706 68.4006 78.706C70.6686 78.706 71.7886 79.518 71.7886 81.646V86H70.4726L70.3186 84.754C69.8286 85.664 68.9746 86.126 67.9526 86.126ZM67.4206 84.04C67.4206 84.698 67.8406 84.964 68.4566 84.964C69.4086 84.964 70.2766 84.222 70.2626 82.696V82.57C67.9666 82.822 67.4206 83.298 67.4206 84.04ZM75.5291 86H73.9471V78.818H75.2631L75.4171 79.854C76.1031 79.084 76.9571 78.692 77.9651 78.692C78.8611 78.692 79.4631 78.958 79.8411 79.448C80.2191 79.952 80.3451 80.54 80.3451 81.926V86H78.7631V82.22C78.7631 81.338 78.6791 80.932 78.4131 80.61C78.1471 80.302 77.7831 80.162 77.2511 80.162C76.5931 80.162 75.9771 80.428 75.5291 80.918V86ZM88.4557 86H87.1397L86.9717 84.74C86.4537 85.636 85.6697 86.126 84.6197 86.126C83.0237 86.126 81.9457 84.95 81.9457 82.654C81.9457 80.106 83.4017 78.706 85.5577 78.706C86.0057 78.706 86.4537 78.762 86.8877 78.888V75.36H88.4557V86ZM83.5977 82.542C83.5977 83.998 84.2137 84.74 85.1797 84.74C85.9077 84.74 86.4817 84.306 86.8877 83.424V80.246C86.4817 80.064 86.0757 79.994 85.6837 79.994C84.4517 79.994 83.5977 80.834 83.5977 82.542ZM91.4248 77.628C90.8088 77.628 90.4308 77.264 90.4308 76.704C90.4308 76.144 90.8088 75.78 91.4248 75.78C92.0268 75.78 92.4048 76.144 92.4048 76.704C92.4048 77.264 92.0268 77.628 91.4248 77.628ZM90.6268 86V78.818H92.2088V86H90.6268ZM95.9549 86H94.3729V78.818H95.6889L95.8429 79.854C96.5289 79.084 97.3829 78.692 98.3909 78.692C99.2869 78.692 99.8889 78.958 100.267 79.448C100.645 79.952 100.771 80.54 100.771 81.926V86H99.1889V82.22C99.1889 81.338 99.1049 80.932 98.8389 80.61C98.5729 80.302 98.2089 80.162 97.6769 80.162C97.0189 80.162 96.4029 80.428 95.9549 80.918V86ZM105.284 89.36C103.296 89.36 102.372 88.744 102.372 87.624C102.372 86.952 102.722 86.434 103.744 85.972C103.128 85.79 102.904 85.454 102.89 84.964C102.876 84.39 103.338 83.886 104.794 83.424C103.534 83.2 102.848 82.43 102.848 81.156C102.848 79.616 104.01 78.664 105.802 78.664C106.39 78.664 106.894 78.762 107.314 78.93L109.694 78.748V80.008L108.476 79.896C108.686 80.246 108.784 80.638 108.784 81.072C108.784 82.486 107.986 83.172 106.138 83.704C104.682 84.124 104.514 84.278 104.514 84.516C104.514 84.81 104.794 84.894 106.166 84.894C107.832 84.894 108.518 85.09 108.994 85.524C109.344 85.86 109.47 86.308 109.47 86.798C109.47 88.422 107.762 89.36 105.284 89.36ZM105.858 82.542C106.656 82.542 107.286 82.066 107.286 81.17C107.286 80.232 106.726 79.714 105.83 79.714C105.004 79.714 104.416 80.19 104.416 81.114C104.416 82.052 104.962 82.542 105.858 82.542ZM103.856 87.232C103.856 87.918 104.458 88.24 105.704 88.24C107.132 88.24 108.028 87.778 108.028 87.078C108.028 86.476 107.608 86.182 105.97 86.182C105.48 86.182 105.06 86.168 104.71 86.14C104.01 86.49 103.842 86.826 103.856 87.232ZM116.143 86.14C114.295 86.14 113.063 85.356 113.063 83.662C113.063 82.584 113.581 81.716 115.093 80.764C114.365 79.98 114.043 79.294 114.043 78.3C114.043 76.746 115.191 75.752 116.941 75.752C118.579 75.752 119.419 76.704 119.419 77.922C119.419 79.098 118.859 79.812 117.123 80.834L119.195 82.738C119.531 82.094 119.839 81.282 120.133 80.26L121.505 80.694C121.113 81.912 120.679 82.892 120.217 83.676L121.939 85.258L120.973 86.336L119.349 84.81C118.439 85.762 117.389 86.14 116.143 86.14ZM115.499 78.174C115.499 78.79 115.723 79.364 116.353 80.064C117.585 79.392 117.991 78.846 117.991 78.062C117.991 77.278 117.543 76.886 116.815 76.886C116.031 76.886 115.499 77.32 115.499 78.174ZM114.701 83.41C114.701 84.39 115.345 84.88 116.283 84.88C117.067 84.88 117.781 84.614 118.411 83.914L115.905 81.562C114.953 82.206 114.701 82.696 114.701 83.41ZM56.68 106.028H55.056L51.556 96.2H53.306L55.91 103.914L58.556 96.2H60.236L56.68 106.028ZM62.167 97.628C61.551 97.628 61.173 97.264 61.173 96.704C61.173 96.144 61.551 95.78 62.167 95.78C62.769 95.78 63.147 96.144 63.147 96.704C63.147 97.264 62.769 97.628 62.167 97.628ZM61.369 106V98.818H62.951V106H61.369ZM66.4451 106.098C65.8851 106.098 65.3111 106.056 64.7371 105.986L64.6671 104.768C65.3251 104.866 65.8151 104.908 66.2771 104.908C67.3271 104.908 67.9711 104.656 67.9711 104.068C67.9711 103.606 67.7891 103.34 66.5151 102.892C65.2411 102.43 64.5551 101.898 64.5551 100.736C64.5551 99.518 65.5771 98.72 67.4811 98.72C68.0131 98.72 68.4891 98.748 69.0491 98.818L69.1191 100.036C68.6151 99.966 68.1951 99.91 67.6071 99.91C66.6411 99.91 66.1931 100.176 66.1931 100.722C66.1931 101.226 66.4731 101.478 67.6351 101.898C69.1751 102.444 69.5951 103.018 69.5951 103.97C69.5951 105.37 68.4331 106.098 66.4451 106.098ZM71.9834 97.628C71.3674 97.628 70.9894 97.264 70.9894 96.704C70.9894 96.144 71.3674 95.78 71.9834 95.78C72.5854 95.78 72.9634 96.144 72.9634 96.704C72.9634 97.264 72.5854 97.628 71.9834 97.628ZM71.1854 106V98.818H72.7674V106H71.1854ZM77.8295 106.112C77.2835 106.112 76.7235 106.014 76.1915 105.804L74.9315 106V95.36H76.5135V99.924C77.0315 99.112 77.7875 98.678 78.7815 98.678C80.3775 98.678 81.4555 99.868 81.4555 102.164C81.4555 104.698 79.9995 106.112 77.8295 106.112ZM76.5135 101.394V104.572C76.9195 104.754 77.3255 104.824 77.7035 104.824C78.9495 104.824 79.8035 103.984 79.8035 102.276C79.8035 100.82 79.1735 100.078 78.2215 100.078C77.4795 100.078 76.9055 100.512 76.5135 101.394ZM83.8506 97.628C83.2346 97.628 82.8566 97.264 82.8566 96.704C82.8566 96.144 83.2346 95.78 83.8506 95.78C84.4526 95.78 84.8306 96.144 84.8306 96.704C84.8306 97.264 84.4526 97.628 83.8506 97.628ZM83.0526 106V98.818H84.6346V106H83.0526ZM88.3807 106H86.7987V95.36H88.3807V106ZM91.3428 97.628C90.7268 97.628 90.3488 97.264 90.3488 96.704C90.3488 96.144 90.7268 95.78 91.3428 95.78C91.9448 95.78 92.3228 96.144 92.3228 96.704C92.3228 97.264 91.9448 97.628 91.3428 97.628ZM90.5448 106V98.818H92.1268V106H90.5448ZM97.0489 106.112C96.2929 106.112 95.6629 105.93 95.2429 105.524C94.7809 105.062 94.5429 104.418 94.5429 103.13V100.064H93.4509V99.014L94.5989 98.888L94.8089 97.348H96.1389V98.818H98.2389V100.064H96.1389V103.2C96.1389 104.446 96.5869 104.824 97.3849 104.824C97.7769 104.824 98.0429 104.782 98.3229 104.74L98.2389 106C97.9029 106.056 97.4549 106.112 97.0489 106.112ZM99.0853 109.36L98.9873 108.002C99.9533 107.974 100.513 107.736 100.989 107.218C101.199 106.994 101.409 106.7 101.605 106.308L98.8613 98.818H100.513L102.431 104.18L104.223 98.818H105.777L103.369 105.328C102.641 107.288 102.165 108.058 101.479 108.604C100.821 109.108 100.135 109.36 99.0853 109.36Z" fill="black"/>
<g clip-path="url(#clip0_696_4434)">
<path fill-rule="evenodd" clip-rule="evenodd" d="M64.5895 33C68.2042 33 71.4771 34.4651 73.8459 36.8344C76.2146 39.2031 77.6797 42.4755 77.6797 46.0901C77.6797 48.7343 76.895 51.1956 75.5465 53.2543L81.2117 59.4293L77.3052 63L71.8417 56.9879C69.7659 58.3727 67.2718 59.1797 64.5895 59.1797C60.9755 59.1797 57.7025 57.7146 55.3338 55.3459C52.9651 52.9766 51.5 49.7042 51.5 46.0895C51.5 42.4755 52.9651 39.2025 55.3338 36.8338C57.7025 34.4651 60.9755 33 64.5895 33ZM63.649 43.4372C64.3551 43.4372 64.9277 44.0097 64.9277 44.7159C64.9277 45.4221 64.3551 45.9946 63.649 45.9946C62.9428 45.9946 62.3703 45.4221 62.3703 44.7159C62.3703 44.0097 62.9428 43.4372 63.649 43.4372ZM54.7261 45.6858C56.1507 43.8597 57.74 42.4046 59.4278 41.4253C61.0816 40.4654 62.8309 39.9591 64.6153 39.9995C66.2873 40.0382 67.9727 40.5645 69.62 41.5261C71.2621 42.4843 72.8754 43.8808 74.4085 45.6612L74.7267 46.0304L74.4559 46.4347C73.2141 48.2924 71.6951 49.7405 70.0302 50.7198C68.3284 51.7213 66.4736 52.2323 64.606 52.193C62.7981 52.1549 60.9872 51.6 59.2995 50.6154C57.6123 49.6315 56.0429 48.218 54.7185 46.4652L54.4237 46.0743L54.7261 45.6858ZM64.5778 42.799C65.4868 42.799 66.3125 43.1694 66.909 43.7659C67.505 44.3619 67.8748 45.1876 67.8748 46.0966C67.8748 47.0055 67.505 47.8306 66.909 48.4272C66.3125 49.0238 65.4868 49.3936 64.5778 49.3936C63.6689 49.3936 62.8449 49.0238 62.2484 48.4272C61.65 47.8306 61.2802 47.0055 61.2802 46.0966C61.2802 45.1882 61.6494 44.3649 62.2472 43.7671C62.8467 43.1676 63.6701 42.799 64.5778 42.799ZM60.0695 42.5323C58.6431 43.3598 57.2853 44.5694 56.0447 46.0831C57.1985 47.5218 58.5277 48.6851 59.9412 49.5084C61.4473 50.3869 63.0483 50.8821 64.6312 50.9155C66.2603 50.9495 67.8854 50.4994 69.3844 49.6174C70.7628 48.8064 72.0374 47.629 73.1151 46.1259C71.7772 44.6333 70.3836 43.4559 68.9736 42.6331C67.5086 41.7781 66.0318 41.3105 64.5901 41.2771C63.0495 41.2419 61.524 41.6879 60.0695 42.5323ZM72.8133 37.867C70.7089 35.7625 67.801 34.4604 64.5895 34.4604C61.3781 34.4604 58.4708 35.7625 56.3664 37.867C54.262 39.9714 52.9604 42.8781 52.9604 46.0895C52.9604 49.301 54.262 52.2089 56.3664 54.3127C58.4708 56.4177 61.3781 57.7187 64.5895 57.7187C67.801 57.7187 70.7089 56.4177 72.8133 54.3127C74.9177 52.2089 76.2187 49.3016 76.2187 46.0895C76.2187 42.8781 74.9177 39.9714 72.8133 37.867Z" fill="black"/>
</g>
<path d="M182 13.5C182 6.87258 187.373 1.5 194 1.5H229C242.255 1.5 253 12.2452 253 25.5V37.5C253 44.1274 247.627 49.5 241 49.5H194C187.373 49.5 182 44.1274 182 37.5V13.5Z" fill="#E2980B"/>
<path d="M201.94 33.5H198.84V19.5H207.5V22.14H201.94V26.26H206.7V28.78H201.94V33.5ZM212.446 33.5H209.426V23.08H211.966L212.326 25.24C213.006 23.78 214.266 22.9 215.766 22.9L215.926 25.84C214.346 25.78 213.146 26.34 212.446 27.72V33.5ZM222.237 33.66C218.437 33.66 216.537 31.9 216.537 28.26C216.537 24.78 218.897 22.88 221.597 22.88C224.457 22.88 225.837 24.6 225.837 27.6C225.837 28.16 225.797 28.66 225.757 29.16H219.617C219.917 30.72 220.977 31.26 222.917 31.26C223.717 31.26 224.537 31.18 225.237 31.08L225.097 33.46C224.377 33.58 223.397 33.66 222.237 33.66ZM221.517 25.12C220.477 25.12 219.717 25.86 219.557 27.52L222.977 27.34C222.977 25.82 222.517 25.12 221.517 25.12ZM232.999 33.66C229.199 33.66 227.299 31.9 227.299 28.26C227.299 24.78 229.659 22.88 232.359 22.88C235.219 22.88 236.599 24.6 236.599 27.6C236.599 28.16 236.559 28.66 236.519 29.16H230.379C230.679 30.72 231.739 31.26 233.679 31.26C234.479 31.26 235.299 31.18 235.999 31.08L235.859 33.46C235.139 33.58 234.159 33.66 232.999 33.66ZM232.279 25.12C231.239 25.12 230.479 25.86 230.319 27.52L233.739 27.34C233.739 25.82 233.279 25.12 232.279 25.12Z" fill="white"/>
<defs>
<clipPath id="clip0_696_4434">
<rect width="29.7117" height="30" fill="white" transform="translate(51.5 33)"/>
</clipPath>
</defs>
</svg>
