<svg width="1300" height="697" viewBox="0 0 1300 697" fill="none" xmlns="http://www.w3.org/2000/svg">
<g clip-path="url(#clip0_1124_3987)">
<path opacity="0.5" d="M1257 181C1234.5 253.5 1450.5 236 1074 380.5" stroke="#949494" stroke-width="1.51521" stroke-dasharray="10.1 10.1"/>
<path opacity="0.5" d="M49 503C3.21302 668.615 228 736 478 670" stroke="#949494" stroke-width="1.51521" stroke-dasharray="10.1 10.1"/>
<path opacity="0.5" d="M972.932 640.217C973.223 636.505 973.673 632.763 974.27 629.093L976.069 629.385C975.48 633.005 975.036 636.698 974.749 640.359L972.932 640.217ZM976.526 618.118C977.426 614.509 978.488 610.892 979.684 607.368L981.41 607.954C980.23 611.43 979.182 614.998 978.294 618.558L976.526 618.118ZM983.722 596.918C985.202 593.512 986.845 590.12 988.605 586.836L990.211 587.697C988.474 590.937 986.853 594.283 985.393 597.644L983.722 596.918ZM995.824 578.172L994.293 577.185C996.313 574.054 998.484 570.973 1000.74 568.029L1002.19 569.139C999.959 572.044 997.818 575.083 995.824 578.172ZM1009.27 560.657L1007.92 559.433C1010.42 556.678 1013.07 553.995 1015.79 551.458L1017.03 552.79C1014.35 555.294 1011.74 557.94 1009.27 560.657ZM1025.42 545.593L1024.29 544.163C1027.21 541.859 1030.27 539.648 1033.37 537.593L1034.38 539.112C1031.31 541.14 1028.3 543.32 1025.42 545.593ZM1241.16 671.114C1241.71 667.489 1242.12 663.793 1242.36 660.129L1244.18 660.252C1243.93 663.967 1243.52 667.713 1242.96 671.387L1241.16 671.114ZM1043.84 533.395L1042.96 531.798C1046.22 530.009 1049.6 528.332 1053 526.815L1053.74 528.479C1050.39 529.976 1047.06 531.63 1043.84 533.395ZM1242.66 649.081C1242.6 645.413 1242.39 641.7 1242.04 638.047L1243.85 637.87C1244.21 641.573 1244.42 645.336 1244.48 649.053L1242.66 649.081ZM1064.02 524.393L1063.41 522.673C1066.92 521.441 1070.53 520.339 1074.13 519.399L1074.59 521.162C1071.04 522.09 1067.48 523.177 1064.02 524.393ZM1240.52 627.1C1239.87 623.487 1239.05 619.858 1238.11 616.313L1239.87 615.842C1240.83 619.435 1241.65 623.114 1242.31 626.775L1240.52 627.1ZM1085.39 518.807L1085.07 517.012C1088.73 516.369 1092.47 515.87 1096.17 515.529L1096.34 517.344C1092.68 517.68 1089 518.172 1085.39 518.807ZM1234.82 605.759C1233.59 602.302 1232.19 598.853 1230.68 595.51L1232.34 594.758C1233.88 598.147 1235.29 601.642 1236.54 605.146L1234.82 605.759ZM1107.37 516.784L1107.36 514.962C1111.08 514.927 1114.84 515.046 1118.55 515.317L1118.41 517.134C1114.76 516.867 1111.04 516.749 1107.37 516.784ZM1225.71 585.636C1223.93 582.423 1221.99 579.25 1219.95 576.205L1221.46 575.19C1223.53 578.278 1225.5 581.494 1227.31 584.75L1225.71 585.636ZM1129.39 518.394L1129.67 516.594C1133.34 517.171 1137.04 517.909 1140.64 518.787L1140.21 520.557C1136.65 519.691 1133.01 518.963 1129.39 518.394ZM1213.42 567.282C1211.14 564.414 1208.7 561.604 1206.18 558.933L1207.51 557.683C1210.06 560.391 1212.53 563.238 1214.85 566.146L1213.42 567.282ZM1150.83 523.613L1151.41 521.884C1154.93 523.059 1158.45 524.397 1161.88 525.862L1161.16 527.537C1157.78 526.092 1154.31 524.772 1150.83 523.613L1150.83 523.613ZM1198.27 551.214C1195.54 548.767 1192.68 546.399 1189.75 544.176L1190.85 542.724C1193.82 544.977 1196.73 547.377 1199.49 549.858L1198.27 551.214ZM1171.13 532.299L1171.98 530.688C1175.26 532.424 1178.53 534.327 1181.66 536.323L1180.68 537.86C1177.59 535.888 1174.37 534.013 1171.13 532.299Z" fill="#949494"/>
<path opacity="0.5" d="M476.116 629.339C476.365 626.064 476.755 622.761 477.276 619.523L478.868 619.784C478.355 622.979 477.97 626.238 477.725 629.469L476.116 629.339ZM479.248 609.84C480.036 606.656 480.968 603.465 482.018 600.358L483.547 600.879C482.511 603.945 481.591 607.092 480.814 610.232L479.248 609.84ZM485.569 591.142C486.871 588.139 488.318 585.149 489.868 582.254L491.292 583.018C489.762 585.874 488.335 588.824 487.05 591.787L485.569 591.142ZM496.239 574.623L494.881 573.748C496.663 570.989 498.577 568.275 500.57 565.681L501.852 566.665C499.885 569.224 497.996 571.901 496.239 574.623ZM508.103 559.195L506.906 558.11C509.113 555.685 511.449 553.323 513.85 551.089L514.954 552.269C512.585 554.472 510.28 556.802 508.103 559.195ZM522.36 545.936L521.358 544.67C523.939 542.643 526.639 540.699 529.383 538.892L530.277 540.236C527.57 542.019 524.906 543.936 522.36 545.936ZM713.619 657.269C714.098 654.071 714.447 650.809 714.659 647.574L716.269 647.688C716.054 650.966 715.7 654.272 715.215 657.514L713.619 657.269ZM538.641 535.212L537.862 533.8C540.743 532.229 543.728 530.757 546.734 529.426L547.395 530.896C544.429 532.21 541.484 533.662 538.641 535.212ZM714.893 637.822C714.836 634.584 714.644 631.306 714.321 628.08L715.926 627.929C716.253 631.199 716.448 634.521 716.505 637.803L714.893 637.822ZM556.478 527.315L555.94 525.795C559.045 524.716 562.233 523.752 565.417 522.931L565.828 524.488C562.687 525.299 559.542 526.249 556.478 527.315ZM712.95 618.413C712.364 615.222 711.638 612.016 710.791 608.884L712.349 608.473C713.206 611.647 713.942 614.897 714.537 618.13L712.95 618.413ZM575.382 522.435L575.099 520.85C578.34 520.292 581.645 519.86 584.923 519.569L585.075 521.171C581.841 521.459 578.58 521.884 575.382 522.435ZM707.859 599.56C706.759 596.505 705.518 593.457 704.171 590.502L705.639 589.842C707.004 592.838 708.261 595.926 709.377 599.023L707.859 599.56ZM594.841 520.704L594.821 519.095C598.115 519.073 601.448 519.187 604.729 519.436L604.615 521.04C601.379 520.795 598.09 520.682 594.841 520.704ZM699.751 581.773C698.163 578.933 696.438 576.127 694.626 573.434L695.964 572.542C697.801 575.272 699.549 578.116 701.159 580.995L699.751 581.773ZM614.33 522.179L614.576 520.59C617.829 521.109 621.1 521.769 624.297 522.553L623.919 524.115C620.765 523.341 617.539 522.69 614.33 522.179ZM688.83 565.541C686.799 563.003 684.635 560.517 682.399 558.153L683.57 557.053C685.836 559.449 688.03 561.969 690.088 564.542L688.83 565.541ZM633.325 526.838L633.831 525.313C636.953 526.359 640.074 527.549 643.107 528.85L642.476 530.327C639.484 529.044 636.405 527.87 633.325 526.838L633.325 526.838ZM675.379 551.319C672.962 549.152 670.419 547.055 667.821 545.086L668.794 543.807C671.426 545.803 674.004 547.928 676.454 550.125L675.379 551.319ZM651.312 534.556L652.062 533.136C654.972 534.676 657.867 536.363 660.644 538.134L659.78 539.488C657.038 537.739 654.183 536.076 651.312 534.556Z" fill="#949494"/>
<path opacity="0.5" d="M13.3953 177.665C13.3322 173.891 13.4264 170.07 13.6758 166.308L15.5193 166.429C15.2738 170.141 15.1805 173.911 15.243 177.634L13.3953 177.665ZM14.8969 155.012C15.4575 151.282 16.1821 147.529 17.0497 143.857L18.8483 144.282C17.9918 147.905 17.2769 151.607 16.7239 155.286L14.8969 155.012ZM20.1197 132.919C21.2861 129.339 22.6182 125.757 24.0784 122.273L25.7828 122.987C24.3413 126.425 23.0274 129.959 21.8765 133.491L20.1197 132.919ZM30.532 112.832L28.8918 111.983C30.6296 108.628 32.5239 105.31 34.5214 102.12L36.0874 103.101C34.1161 106.248 32.247 109.522 30.532 112.832ZM42.4209 93.8582L40.9413 92.7517C43.2002 89.731 45.6132 86.7679 48.1134 83.9449L49.4968 85.1701C47.0298 87.9551 44.6493 90.8783 42.4209 93.8582ZM57.2688 77.0982L55.9925 75.7626C58.72 73.1556 61.5919 70.6301 64.5282 68.2566L65.6896 69.6937C62.7926 72.0352 59.9595 74.5264 57.2688 77.0982ZM287.128 183.038C287.334 179.326 287.387 175.556 287.285 171.833L289.132 171.782C289.235 175.556 289.182 179.377 288.973 183.14L287.128 183.038ZM74.6928 63.0116L73.654 61.4839C76.7721 59.3639 80.0193 57.3466 83.3056 55.4876L84.2148 57.0957C80.9726 58.9301 77.7688 60.9203 74.6928 63.0116ZM286.517 160.653C286.109 156.955 285.542 153.228 284.831 149.574L286.645 149.221C287.365 152.925 287.94 156.702 288.353 160.45L286.517 160.653ZM94.1904 51.9828L93.4157 50.3048C96.8412 48.7231 100.373 47.2644 103.915 45.9687L104.55 47.7036C101.055 48.9823 97.5696 50.4217 94.1904 51.9828ZM282.243 138.67C281.236 135.086 280.068 131.501 278.771 128.013L280.503 127.369C281.817 130.904 283.001 134.538 284.022 138.17L282.243 138.67ZM115.224 44.2871L114.733 42.5061C118.369 41.5045 122.092 40.6414 125.797 39.9408L126.14 41.7563C122.484 42.4477 118.811 43.2991 115.224 44.2871ZM274.439 117.677C272.86 114.306 271.122 110.959 269.273 107.73L270.877 106.811C272.75 110.084 274.512 113.476 276.112 116.893L274.439 117.677ZM137.225 40.1294L137.032 38.2919C140.785 37.898 144.597 37.6561 148.363 37.5729L148.403 39.4203C144.688 39.5022 140.927 39.741 137.225 40.1294ZM263.308 98.2404C261.196 95.1694 258.933 92.153 256.581 89.2753L258.012 88.1055C260.395 91.0229 262.689 94.0803 264.831 97.1926L263.308 98.2404ZM159.601 39.6361L159.713 37.7917C163.476 38.0205 167.274 38.4096 171.003 38.9487L170.738 40.7775C167.06 40.2457 163.313 39.8615 159.601 39.6361ZM249.135 80.8968C246.55 78.2212 243.82 75.6199 241.02 73.1658L242.238 71.7765C245.076 74.2637 247.844 76.9003 250.464 79.6129L249.135 80.8968ZM181.75 42.8399L182.165 41.0396C185.836 41.8856 189.52 42.8978 193.116 44.047L192.553 45.8071C189.005 44.6735 185.371 43.6751 181.75 42.8399L181.75 42.8399ZM232.292 66.135C229.306 63.9272 226.184 61.8128 223.014 59.8512L223.987 58.2798C227.2 60.2682 230.364 62.411 233.39 64.6492L232.292 66.135ZM203.075 49.6546L203.78 47.9464C207.261 49.3828 210.74 50.9888 214.093 52.7028L213.252 54.3485C209.941 52.6552 206.51 51.0727 203.075 49.6546Z" fill="#949494"/>
<path opacity="0.5" d="M504.353 180.228C505.184 176.634 506.176 173.026 507.302 169.501L509.026 170.052C507.914 173.529 506.936 177.09 506.116 180.635L504.353 180.228ZM512.788 159.737L511.115 159.049C512.523 155.626 514.086 152.226 515.762 148.943L517.374 149.766C515.72 153.005 514.178 156.36 512.788 159.737ZM522.76 140.204L521.222 139.252C523.166 136.111 525.267 133.013 527.464 130.044L528.919 131.12C526.751 134.049 524.679 137.106 522.76 140.204ZM535.809 122.578L534.449 121.385C536.887 118.607 539.472 115.897 542.133 113.329L543.39 114.632C540.764 117.165 538.214 119.838 535.809 122.578ZM551.6 107.34L550.456 105.938C553.316 103.602 556.311 101.356 559.358 99.26L560.383 100.751C557.377 102.819 554.422 105.036 551.6 107.34ZM766.646 184.433C765.93 180.86 765.057 177.272 764.05 173.768L765.79 173.268C766.81 176.82 767.695 180.456 768.42 184.077L766.646 184.433ZM569.677 94.9067L568.778 93.3361C571.984 91.499 575.305 89.7727 578.65 88.2047L579.418 89.843C576.118 91.3904 572.84 93.0937 569.677 94.9067ZM760.59 163.352C759.3 159.941 757.853 156.544 756.288 153.252L757.923 152.475C759.508 155.811 760.975 159.255 762.283 162.711L760.59 163.352ZM589.539 85.5939L588.907 83.8983C592.369 82.6092 595.926 81.4478 599.482 80.4463L599.972 82.1882C596.464 83.1765 592.954 84.3222 589.539 85.5939ZM751.174 143.539C749.345 140.385 747.362 137.269 745.281 134.277L746.767 133.243C748.876 136.276 750.886 139.434 752.74 142.63L751.174 143.539ZM610.647 79.65L610.302 77.8738C613.929 77.1675 617.628 76.6044 621.295 76.2002L621.493 77.9991C617.875 78.3977 614.226 78.9534 610.647 79.65ZM738.648 125.53C736.323 122.715 733.856 119.966 731.315 117.36L732.611 116.096C735.186 118.738 737.687 121.524 740.043 124.377L738.648 125.53ZM632.436 77.2491L632.387 75.44C636.079 75.3404 639.818 75.3942 643.502 75.6002L643.4 77.4073C639.767 77.2039 636.078 77.1506 632.436 77.2491ZM723.331 109.825C720.58 107.436 717.693 105.132 714.751 102.978L715.82 101.518C718.802 103.701 721.729 106.036 724.518 108.458L723.331 109.825ZM654.321 78.4748L654.572 76.6826C658.226 77.1932 661.907 77.8647 665.514 78.6774L665.116 80.443C661.558 79.6413 657.926 78.979 654.321 78.4748ZM705.632 96.8671C702.529 94.9691 699.302 93.174 696.041 91.5321L696.855 89.9155C700.16 91.5799 703.431 93.3991 706.576 95.3231L705.632 96.8671ZM675.712 83.2942L676.253 81.5671C679.773 82.6699 683.305 83.9383 686.724 85.3229L686.044 87.0007C682.669 85.6327 679.185 84.383 675.712 83.2942Z" fill="#949494"/>
<path opacity="0.5" d="M387.743 366.5L386.246 365.96C387.351 362.898 388.593 359.85 389.939 356.9L391.387 357.561C390.059 360.472 388.833 363.479 387.743 366.5ZM395.751 348.95L394.362 348.172C395.95 345.337 397.676 342.533 399.492 339.839L400.812 340.729C399.02 343.387 397.318 346.153 395.751 348.95ZM406.538 332.956L405.296 331.96C407.331 329.425 409.498 326.943 411.738 324.584L412.892 325.68C410.683 328.007 408.545 330.456 406.538 332.956ZM614.838 397.446C614.594 394.252 614.213 391.027 613.705 387.858L615.277 387.606C615.792 390.818 616.178 394.087 616.425 397.324L614.838 397.446ZM419.826 318.955L418.766 317.767C421.19 315.604 423.735 313.514 426.332 311.555L427.29 312.825C424.728 314.759 422.217 316.821 419.826 318.955ZM611.785 378.396C611.018 375.284 610.112 372.165 609.092 369.125L610.602 368.618C611.635 371.7 612.553 374.861 613.33 378.015L611.785 378.396ZM435.232 307.33L434.381 305.985C437.127 304.247 439.979 302.601 442.858 301.094L443.596 302.504C440.756 303.991 437.942 305.615 435.232 307.33ZM605.649 360.104C604.383 357.157 602.98 354.227 601.478 351.395L602.885 350.649C604.407 353.519 605.829 356.489 607.112 359.476L605.649 360.104ZM452.326 298.379L451.706 296.913C454.698 295.647 457.78 294.489 460.865 293.471L461.364 294.983C458.319 295.987 455.278 297.13 452.326 298.379ZM596.609 343.057C594.88 340.356 593.017 337.694 591.073 335.145L592.338 334.179C594.309 336.763 596.197 339.46 597.949 342.197L596.609 343.057ZM470.647 292.34L470.274 290.793C473.435 290.032 476.664 289.394 479.871 288.897L480.114 290.47C476.95 290.961 473.765 291.59 470.647 292.34ZM584.905 327.715C582.754 325.331 580.479 323.01 578.145 320.818L579.235 319.658C581.601 321.88 583.906 324.232 586.087 326.648L584.905 327.715ZM489.702 289.389L489.589 287.801C492.829 287.571 496.117 287.473 499.363 287.512L499.343 289.104C496.142 289.066 492.898 289.161 489.702 289.389ZM570.838 314.504C568.328 312.511 565.702 310.598 563.033 308.819L563.916 307.495C566.622 309.298 569.284 311.237 571.828 313.258L570.838 314.504ZM508.982 289.62L509.133 288.036C512.363 288.343 515.625 288.791 518.826 289.366L518.544 290.933C515.386 290.366 512.169 289.924 508.982 289.62ZM554.783 303.801C551.984 302.253 549.079 300.8 546.149 299.483L546.802 298.031C549.771 299.366 552.716 300.839 555.553 302.408L554.783 303.801ZM527.966 293.029L528.375 291.491C531.51 292.324 534.664 293.302 537.721 294.387L537.189 295.887C534.17 294.816 531.06 293.852 527.966 293.029Z" fill="#949494"/>
<path opacity="0.5" d="M53.9437 470.176C53.9197 467.13 54.0214 464.045 54.2464 461.008L55.7131 461.093C55.4917 464.09 55.3911 467.133 55.4149 470.137L53.9437 470.176ZM55.2974 451.884C55.7698 448.87 56.3729 445.836 57.0893 442.866L58.5182 443.196C57.811 446.126 57.216 449.119 56.75 452.092L55.2974 451.884ZM59.6098 434.018C60.5635 431.12 61.649 428.22 62.8358 425.398L64.1878 425.963C63.0161 428.747 61.9454 431.608 61.0044 434.467L59.6098 434.018ZM68.0397 417.734L66.7398 417.06C68.1467 414.341 69.678 411.65 71.2906 409.062L72.5305 409.842C70.9391 412.396 69.4282 415.051 68.0397 417.734ZM77.6374 402.339L76.4671 401.456C78.2866 399.003 80.2284 396.595 82.2386 394.299L83.3314 395.278C81.3479 397.543 79.4323 399.918 77.6374 402.339ZM89.5753 388.709L88.5685 387.641C90.7582 385.518 93.0623 383.459 95.4165 381.523L96.3311 382.675C94.0084 384.585 91.7354 386.615 89.5753 388.709ZM271.832 472.598C272.022 469.601 272.091 466.559 272.036 463.555L273.506 463.501C273.562 466.546 273.493 469.63 273.3 472.668L271.832 472.598ZM103.545 377.22L102.729 375.994C105.226 374.261 107.826 372.611 110.455 371.087L111.168 372.379C108.574 373.882 106.009 375.51 103.545 377.22ZM271.502 454.538C271.203 451.556 270.778 448.552 270.237 445.609L271.684 445.311C272.231 448.295 272.663 451.34 272.965 454.361L271.502 454.538ZM119.145 368.183L118.54 366.834C121.278 365.534 124.1 364.332 126.93 363.261L127.422 364.657C124.631 365.714 121.846 366.899 119.145 368.183ZM268.253 436.827C267.477 433.942 266.572 431.057 265.564 428.251L266.947 427.719C267.968 430.562 268.886 433.487 269.673 436.411L268.253 436.827ZM135.944 361.825L135.566 360.391C138.468 359.558 141.437 358.835 144.392 358.244L144.653 359.707C141.737 360.29 138.807 361.003 135.944 361.825ZM262.187 419.94C260.953 417.23 259.593 414.541 258.144 411.948L259.427 411.195C260.896 413.824 262.274 416.549 263.524 419.295L262.187 419.94ZM153.489 358.316L153.348 356.835C156.339 356.491 159.375 356.269 162.374 356.175L162.393 357.666C159.435 357.758 156.439 357.977 153.489 358.316ZM253.461 404.332C251.801 401.868 250.02 399.45 248.168 397.144L249.315 396.19C251.193 398.528 252.998 400.979 254.681 403.476L253.461 404.332ZM171.306 357.762L171.408 356.273C174.403 356.431 177.424 356.718 180.389 357.127L180.165 358.605C177.241 358.202 174.26 357.918 171.306 357.762ZM242.299 390.434C240.26 388.293 238.104 386.213 235.892 384.252L236.871 383.122C239.114 385.11 241.299 387.218 243.366 389.389L242.299 390.434ZM188.917 360.193L189.261 358.737C192.177 359.394 195.103 360.185 197.958 361.087L197.498 362.512C194.681 361.622 191.795 360.841 188.917 360.193ZM228.992 378.639C226.631 376.878 224.161 375.194 221.65 373.633L222.436 372.358C224.98 373.94 227.484 375.647 229.877 377.432L228.992 378.639ZM205.847 365.543L206.421 364.16C209.182 365.295 211.941 366.566 214.598 367.926L213.917 369.26C211.293 367.917 208.572 366.664 205.847 365.543Z" fill="#949494"/>
<path opacity="0.5" d="M982.147 116.568C982.847 112.759 983.714 108.936 984.726 105.203L986.555 105.698C985.558 109.381 984.701 113.153 984.011 116.91L982.147 116.568ZM988.238 94.0914C989.556 90.454 991.044 86.8263 992.659 83.3094L994.382 84.1003C992.788 87.5698 991.32 91.1483 990.02 94.7364L988.238 94.0914ZM997.958 72.9312C999.856 69.5665 1001.92 66.2343 1004.09 63.0259L1005.66 64.0888C1003.52 67.2541 1001.48 70.5423 999.609 73.8617L997.958 72.9312ZM1012.49 54.8378L1011.01 53.6518C1013.44 50.6298 1016.02 47.676 1018.67 44.8725L1020.05 46.1757C1017.43 48.9418 1014.89 51.8561 1012.49 54.8378ZM1028.28 38.1618L1027.02 36.7499C1029.9 34.1691 1032.93 31.6775 1036.01 29.3444L1037.16 30.8562C1034.11 33.1578 1031.13 35.6159 1028.28 38.1618ZM1046.6 24.311L1045.59 22.7098C1048.86 20.6399 1052.26 18.6811 1055.69 16.8882L1056.57 18.5682C1053.18 20.3369 1049.83 22.269 1046.6 24.311ZM1256.32 177.331C1257.28 173.64 1258.1 169.86 1258.75 166.095L1260.62 166.418C1259.96 170.234 1259.13 174.066 1258.16 177.807L1256.32 177.331ZM1066.98 13.6696L1066.24 11.9232C1069.8 10.422 1073.48 9.05016 1077.16 7.84537L1077.75 9.64636C1074.12 10.8353 1070.49 12.1887 1066.98 13.6696ZM1260.24 154.697C1260.57 150.897 1260.76 147.034 1260.78 143.216L1262.68 143.228C1262.65 147.097 1262.47 151.013 1262.12 154.865L1260.24 154.697ZM1088.81 6.52235L1088.37 4.67835C1092.14 3.7806 1095.98 3.02799 1099.81 2.44148L1100.1 4.31443C1096.32 4.89347 1092.53 5.63595 1088.81 6.52235ZM1260.38 131.728C1260.1 127.92 1259.65 124.078 1259.05 120.309L1260.92 120.011C1261.53 123.831 1261.98 127.725 1262.27 131.584L1260.38 131.728ZM1111.52 3.03756L1111.39 1.1474C1115.25 0.87551 1119.16 0.760389 1123.03 0.805373L1123.01 2.7004C1119.19 2.65614 1115.33 2.76952 1111.52 3.03756ZM1256.78 109.038C1255.88 105.329 1254.81 101.612 1253.6 97.9906L1255.4 97.391C1256.62 101.062 1257.71 104.828 1258.62 108.588L1256.78 109.038ZM1134.48 3.30619L1134.66 1.41945C1138.52 1.78232 1142.4 2.31 1146.2 2.98808L1145.87 4.85396C1142.12 4.18485 1138.29 3.66441 1134.48 3.30619ZM1249.52 87.242C1248.02 83.7266 1246.35 80.2356 1244.57 76.8662L1246.24 75.9792C1248.05 79.395 1249.74 82.9335 1251.26 86.4963L1249.52 87.242ZM1157.09 7.33551L1157.57 5.50348C1161.31 6.49467 1165.05 7.6542 1168.69 8.95029L1168.05 10.7357C1164.46 9.45716 1160.77 8.31304 1157.09 7.33551ZM1238.78 66.9349C1236.72 63.7216 1234.5 60.5536 1232.18 57.5195L1233.68 56.3687C1236.04 59.4439 1238.29 62.655 1240.37 65.9127L1238.78 66.9349ZM1178.71 15.0368L1179.49 13.3105C1183.01 14.9035 1186.51 16.6665 1189.9 18.5494L1188.97 20.2056C1185.64 18.348 1182.18 16.6091 1178.71 15.0368L1178.71 15.0368ZM1224.82 48.6841C1222.27 45.8601 1219.56 43.1026 1216.77 40.4888L1218.06 39.1053C1220.89 41.7546 1223.64 44.5494 1226.23 47.4121L1224.82 48.6841ZM1198.78 26.2026L1199.83 24.6274C1203.04 26.7757 1206.22 29.0945 1209.24 31.4962L1208.06 32.981C1205.07 30.6086 1201.94 28.3232 1198.78 26.2026Z" fill="#949494"/>
<path opacity="0.5" d="M803.527 359.165C804.208 355.462 805.051 351.744 806.035 348.115L807.813 348.596C806.843 352.177 806.011 355.844 805.34 359.497L803.527 359.165ZM809.45 337.311C810.731 333.774 812.178 330.247 813.748 326.828L815.423 327.597C813.873 330.97 812.447 334.449 811.182 337.938L809.45 337.311ZM818.901 316.737C820.745 313.465 822.752 310.226 824.865 307.106L826.391 308.139C824.306 311.217 822.326 314.414 820.506 317.642L818.901 316.737ZM833.031 299.145L831.595 297.992C833.953 295.053 836.458 292.181 839.038 289.455L840.377 290.723C837.83 293.412 835.359 296.246 833.031 299.145ZM848.387 282.931L847.158 281.558C849.96 279.049 852.902 276.626 855.902 274.357L857.014 275.827C854.054 278.065 851.151 280.455 848.387 282.931ZM866.2 269.463L865.214 267.907C868.394 265.894 871.699 263.99 875.036 262.246L875.889 263.88C872.596 265.599 869.336 267.478 866.2 269.463ZM886.006 259.117L885.291 257.419C888.756 255.959 892.328 254.625 895.907 253.454L896.479 255.205C892.949 256.361 889.425 257.677 886.006 259.117ZM907.238 252.168L906.811 250.375C910.471 249.502 914.211 248.77 917.929 248.2L918.209 250.021C914.54 250.584 910.849 251.306 907.238 252.168ZM1074.06 373.905C1073.78 370.202 1073.34 366.467 1072.76 362.802L1074.58 362.513C1075.17 366.227 1075.61 370.013 1075.9 373.765L1074.06 373.905ZM929.317 248.779L929.187 246.942C932.939 246.677 936.748 246.565 940.51 246.609L940.488 248.451C936.777 248.408 933.018 248.519 929.317 248.779ZM1070.56 351.844C1069.67 348.237 1068.63 344.623 1067.46 341.102L1069.21 340.519C1070.4 344.088 1071.45 347.751 1072.35 351.406L1070.56 351.844ZM951.645 249.041L951.818 247.206C955.565 247.559 959.34 248.072 963.039 248.731L962.715 250.545C959.066 249.895 955.342 249.389 951.645 249.041ZM1063.5 330.651C1062.03 327.233 1060.41 323.839 1058.68 320.563L1060.31 319.701C1062.07 323.022 1063.71 326.462 1065.19 329.926L1063.5 330.651ZM973.62 252.958L974.092 251.177C977.727 252.141 981.364 253.268 984.904 254.528L984.285 256.264C980.794 255.021 977.206 253.909 973.62 252.958ZM1053.05 310.907C1051.05 307.782 1048.89 304.702 1046.63 301.752L1048.1 300.633C1050.38 303.623 1052.57 306.745 1054.6 309.913L1053.05 310.907ZM994.646 260.446L995.407 258.768C998.829 260.317 1002.23 262.031 1005.52 263.861L1004.63 265.472C1001.38 263.666 998.023 261.975 994.646 260.446ZM1039.48 293.161C1037 290.416 1034.36 287.735 1031.65 285.193L1032.91 283.848C1035.66 286.424 1038.33 289.141 1040.85 291.925L1039.48 293.161ZM1014.16 271.303L1015.18 269.771C1018.3 271.86 1021.39 274.114 1024.33 276.45L1023.18 277.893C1020.28 275.587 1017.24 273.365 1014.16 271.303Z" fill="#949494"/>
<path d="M500.641 223.29L297.925 194.048L297.802 195.046L500.518 224.288L500.641 223.29Z" fill="#949494"/>
<path d="M281.716 199.173C280.586 197.723 279.911 195.97 279.776 194.137C279.642 192.303 280.054 190.47 280.961 188.871C281.868 187.271 283.229 185.977 284.872 185.15C286.515 184.324 288.366 184.004 290.19 184.229C292.015 184.455 293.732 185.217 295.124 186.418C296.516 187.619 297.52 189.207 298.009 190.979C298.499 192.751 298.452 194.629 297.874 196.374C297.297 198.12 296.214 199.655 294.764 200.786C292.819 202.3 290.352 202.98 287.906 202.677C285.46 202.375 283.234 201.115 281.716 199.173ZM295.587 188.357C294.579 187.064 293.21 186.099 291.653 185.584C290.096 185.069 288.421 185.027 286.841 185.464C285.26 185.901 283.844 186.797 282.773 188.038C281.701 189.279 281.021 190.81 280.82 192.438C280.618 194.065 280.904 195.716 281.64 197.181C282.377 198.646 283.531 199.859 284.958 200.668C286.384 201.477 288.018 201.844 289.654 201.724C291.289 201.604 292.853 201.002 294.146 199.993C295.878 198.639 297.002 196.654 297.272 194.473C297.543 192.291 296.936 190.092 295.587 188.357Z" fill="#949494"/>
<path d="M981.646 155.675L782.318 193.535L782.55 194.514L981.878 156.653L981.646 155.675Z" fill="#949494"/>
<path d="M768.913 203.99C767.348 203.025 766.104 201.618 765.339 199.946C764.574 198.274 764.322 196.413 764.615 194.597C764.907 192.782 765.732 191.094 766.983 189.747C768.235 188.4 769.858 187.455 771.647 187.03C773.436 186.605 775.311 186.721 777.034 187.362C778.757 188.003 780.252 189.141 781.328 190.631C782.405 192.121 783.015 193.898 783.082 195.735C783.149 197.573 782.67 199.389 781.705 200.954C780.409 203.051 778.334 204.548 775.936 205.117C773.538 205.686 771.012 205.281 768.913 203.99ZM778.144 189.018C776.748 188.157 775.129 187.73 773.49 187.79C771.851 187.85 770.267 188.395 768.938 189.355C767.609 190.315 766.594 191.648 766.022 193.185C765.45 194.722 765.347 196.394 765.725 197.99C766.104 199.585 766.946 201.033 768.147 202.149C769.348 203.266 770.854 204.001 772.472 204.262C774.091 204.522 775.751 204.297 777.242 203.615C778.733 202.932 779.988 201.823 780.849 200.427C782.001 198.554 782.363 196.301 781.855 194.163C781.348 192.024 780.014 190.174 778.144 189.018Z" fill="#949494"/>
<path d="M501.354 184C497.812 184 494.416 185.407 491.911 187.912C489.407 190.417 488 193.814 488 197.356C488 204.732 501.354 229.077 501.354 229.077C501.354 229.077 514.708 204.732 514.708 197.356C514.708 195.602 514.362 193.865 513.691 192.245C513.02 190.624 512.037 189.152 510.797 187.912C509.556 186.672 508.084 185.688 506.464 185.017C504.844 184.345 503.108 184 501.354 184ZM501.354 204.368C499.967 204.368 498.612 203.957 497.459 203.186C496.306 202.416 495.407 201.321 494.877 200.039C494.346 198.758 494.207 197.348 494.478 195.988C494.748 194.628 495.416 193.379 496.397 192.398C497.377 191.417 498.626 190.749 499.986 190.479C501.346 190.208 502.756 190.347 504.037 190.878C505.318 191.409 506.413 192.307 507.183 193.46C507.953 194.614 508.365 195.969 508.365 197.356C508.365 199.216 507.626 200.999 506.311 202.314C504.996 203.629 503.213 204.368 501.354 204.368Z" fill="#E2980B"/>
<path d="M982.417 115.845C979.124 115.845 975.965 117.153 973.637 119.482C971.308 121.811 970 124.97 970 128.263C970 135.122 982.417 157.758 982.417 157.758C982.417 157.758 994.833 135.122 994.833 128.263C994.833 126.633 994.512 125.018 993.888 123.511C993.264 122.004 992.35 120.635 991.197 119.482C990.044 118.329 988.675 117.414 987.168 116.79C985.662 116.166 984.047 115.845 982.417 115.845ZM982.417 134.783C981.127 134.783 979.867 134.401 978.795 133.684C977.723 132.968 976.888 131.95 976.394 130.758C975.901 129.567 975.772 128.256 976.023 126.991C976.275 125.727 976.896 124.565 977.807 123.653C978.719 122.741 979.88 122.12 981.145 121.869C982.409 121.617 983.72 121.746 984.911 122.24C986.102 122.733 987.121 123.569 987.837 124.641C988.553 125.713 988.935 126.974 988.935 128.263C988.935 129.993 988.249 131.651 987.026 132.874C985.804 134.096 984.146 134.783 982.417 134.783Z" fill="#E2980B"/>
<path d="M1076.07 345C1072.87 345 1069.8 346.272 1067.54 348.537C1065.27 350.801 1064 353.872 1064 357.075C1064 363.743 1076.07 385.752 1076.07 385.752C1076.07 385.752 1088.15 363.743 1088.15 357.075C1088.15 355.489 1087.83 353.919 1087.23 352.454C1086.62 350.989 1085.73 349.658 1084.61 348.537C1083.49 347.415 1082.16 346.526 1080.69 345.919C1079.23 345.312 1077.66 345 1076.07 345ZM1076.07 363.414C1074.82 363.414 1073.59 363.042 1072.55 362.346C1071.51 361.649 1070.7 360.659 1070.22 359.501C1069.74 358.342 1069.61 357.068 1069.86 355.838C1070.1 354.608 1070.7 353.479 1071.59 352.592C1072.48 351.706 1073.61 351.102 1074.84 350.857C1076.07 350.613 1077.34 350.738 1078.5 351.218C1079.66 351.698 1080.65 352.51 1081.34 353.553C1082.04 354.595 1082.41 355.821 1082.41 357.075C1082.41 358.756 1081.74 360.368 1080.55 361.557C1079.37 362.746 1077.75 363.414 1076.07 363.414Z" fill="#E2980B"/>
<path d="M12.9462 173.707C9.82547 173.707 6.83259 174.947 4.62593 177.154C2.41926 179.361 1.17956 182.354 1.17957 185.475C1.17957 191.975 12.9462 213.426 12.9462 213.426C12.9462 213.426 24.7128 191.975 24.7128 185.475C24.7128 183.93 24.4084 182.4 23.8171 180.972C23.2258 179.544 22.3591 178.247 21.2664 177.154C20.1738 176.061 18.8767 175.194 17.4491 174.603C16.0215 174.011 14.4914 173.707 12.9462 173.707ZM12.9462 191.654C11.7244 191.654 10.53 191.291 9.51415 190.613C8.49827 189.934 7.70649 188.969 7.23893 187.84C6.77137 186.711 6.64904 185.468 6.8874 184.27C7.12576 183.071 7.7141 181.971 8.57804 181.106C9.44197 180.242 10.5427 179.654 11.741 179.416C12.9393 179.177 14.1814 179.3 15.3102 179.767C16.439 180.235 17.4037 181.027 18.0825 182.043C18.7613 183.059 19.1236 184.253 19.1236 185.475C19.1236 187.114 18.4728 188.685 17.3143 189.844C16.1558 191.003 14.5845 191.654 12.9462 191.654Z" fill="#E2980B"/>
<path d="M793.42 376.422L618.648 398.106L618.626 397.101L793.398 375.416L793.42 376.422Z" fill="#949494"/>
<path d="M378.744 399.632L279.74 476.754L280.52 477.388L379.525 400.266L378.744 399.632Z" fill="#949494"/>
<path d="M275.488 493.213C273.659 493.402 271.815 493.045 270.19 492.186C268.564 491.327 267.229 490.006 266.355 488.388C265.48 486.771 265.104 484.93 265.276 483.099C265.447 481.268 266.157 479.529 267.316 478.102C268.476 476.675 270.032 475.624 271.789 475.081C273.545 474.539 275.424 474.53 277.186 475.055C278.948 475.58 280.514 476.616 281.688 478.032C282.861 479.448 283.588 481.179 283.778 483.009C284.028 485.461 283.297 487.912 281.742 489.825C280.188 491.738 277.939 492.957 275.488 493.213ZM273.678 475.717C272.047 475.886 270.503 476.535 269.24 477.581C267.978 478.628 267.054 480.025 266.586 481.597C266.118 483.168 266.126 484.844 266.61 486.411C267.093 487.978 268.031 489.366 269.303 490.4C270.576 491.434 272.126 492.068 273.759 492.221C275.392 492.374 277.033 492.039 278.475 491.259C279.917 490.478 281.096 489.288 281.862 487.838C282.627 486.388 282.946 484.743 282.777 483.112C282.549 480.926 281.462 478.919 279.756 477.533C278.051 476.147 275.865 475.494 273.678 475.717Z" fill="#949494"/>
<path d="M969.335 648.327L726.032 665.347L726.023 666.352L969.325 649.333L969.335 648.327Z" fill="#949494"/>
<path d="M710.514 672.286C709.226 670.975 708.355 669.31 708.013 667.504C707.671 665.697 707.871 663.83 708.59 662.137C709.309 660.445 710.514 659.004 712.052 657.996C713.59 656.988 715.392 656.458 717.231 656.475C719.069 656.491 720.862 657.052 722.381 658.087C723.901 659.122 725.079 660.585 725.768 662.29C726.456 663.995 726.623 665.865 726.248 667.666C725.873 669.466 724.973 671.114 723.661 672.403C721.901 674.128 719.528 675.085 717.063 675.063C714.598 675.041 712.243 674.043 710.514 672.286ZM723.062 659.961C721.914 658.791 720.443 657.988 718.838 657.654C717.233 657.32 715.564 657.469 714.044 658.083C712.523 658.697 711.219 659.748 710.295 661.104C709.372 662.459 708.871 664.058 708.856 665.697C708.841 667.337 709.313 668.944 710.212 670.316C711.11 671.687 712.396 672.761 713.905 673.402C715.414 674.043 717.08 674.222 718.691 673.917C720.302 673.611 721.786 672.835 722.956 671.685C724.523 670.143 725.414 668.043 725.434 665.845C725.454 663.647 724.601 661.531 723.062 659.961Z" fill="#949494"/>
<path d="M969.938 610.055C966.772 610.055 963.735 611.313 961.497 613.552C959.258 615.791 958 618.828 958 621.995C958 628.589 969.938 650.352 969.938 650.352C969.938 650.352 981.876 628.589 981.876 621.995C981.876 620.427 981.567 618.874 980.967 617.425C980.367 615.977 979.488 614.661 978.38 613.552C977.271 612.443 975.955 611.564 974.507 610.964C973.058 610.364 971.506 610.055 969.938 610.055ZM969.938 628.263C968.698 628.263 967.487 627.896 966.456 627.207C965.425 626.518 964.622 625.539 964.148 624.394C963.673 623.248 963.549 621.988 963.791 620.772C964.033 619.556 964.63 618.439 965.506 617.562C966.383 616.686 967.5 616.089 968.715 615.847C969.931 615.605 971.191 615.729 972.336 616.203C973.482 616.678 974.461 617.481 975.149 618.512C975.838 619.543 976.206 620.755 976.206 621.995C976.206 623.657 975.545 625.252 974.37 626.427C973.194 627.603 971.6 628.263 969.938 628.263Z" fill="#E2980B"/>
<path d="M478.465 634.166C475.49 634.166 472.637 635.347 470.534 637.451C468.43 639.555 467.249 642.408 467.249 645.383C467.249 651.579 478.465 672.026 478.465 672.026C478.465 672.026 489.681 651.579 489.681 645.383C489.681 643.91 489.391 642.452 488.827 641.091C488.263 639.729 487.437 638.493 486.396 637.451C485.354 636.409 484.118 635.583 482.757 635.019C481.396 634.456 479.938 634.166 478.465 634.166ZM478.465 651.273C477.3 651.273 476.162 650.927 475.193 650.28C474.225 649.633 473.47 648.713 473.025 647.637C472.579 646.561 472.462 645.377 472.69 644.234C472.917 643.092 473.478 642.043 474.301 641.219C475.125 640.395 476.174 639.834 477.316 639.607C478.458 639.38 479.642 639.497 480.718 639.942C481.794 640.388 482.714 641.143 483.361 642.111C484.008 643.08 484.353 644.219 484.353 645.383C484.353 646.945 483.733 648.443 482.629 649.548C481.524 650.652 480.027 651.273 478.465 651.273Z" fill="#E2980B"/>
<path d="M49.0497 465.416C46.1192 465.416 43.3086 466.581 41.2364 468.653C39.1642 470.726 38 473.537 38 476.468C38 482.571 49.0497 502.715 49.0497 502.715C49.0497 502.715 60.0995 482.571 60.0995 476.468C60.0995 475.016 59.8137 473.579 59.2584 472.239C58.7031 470.898 57.8891 469.679 56.8631 468.653C55.837 467.627 54.6189 466.813 53.2783 466.258C51.9377 465.702 50.5008 465.416 49.0497 465.416ZM49.0497 482.27C47.9024 482.27 46.7808 481.93 45.8268 481.292C44.8728 480.654 44.1293 479.748 43.6902 478.688C43.2511 477.628 43.1363 476.461 43.3601 475.336C43.5839 474.21 44.1364 473.177 44.9477 472.365C45.759 471.554 46.7927 471.001 47.918 470.777C49.0433 470.553 50.2097 470.668 51.2697 471.107C52.3297 471.547 53.2357 472.29 53.8732 473.244C54.5106 474.198 54.8508 475.32 54.8508 476.468C54.8508 478.007 54.2396 479.482 53.1517 480.57C52.0638 481.659 50.5883 482.27 49.0497 482.27Z" fill="#E2980B"/>
<path d="M797.228 367.846C795.798 369.002 794.744 370.556 794.198 372.312C793.651 374.068 793.638 375.946 794.16 377.709C794.681 379.473 795.714 381.042 797.127 382.219C798.54 383.395 800.27 384.127 802.099 384.32C803.927 384.513 805.772 384.16 807.399 383.305C809.027 382.45 810.364 381.131 811.242 379.516C812.121 377.9 812.5 376.061 812.332 374.23C812.165 372.398 811.458 370.658 810.302 369.228C808.75 367.314 806.501 366.093 804.05 365.834C801.599 365.575 799.145 366.298 797.228 367.846ZM808.289 381.521C807.015 382.552 805.463 383.182 803.83 383.331C802.197 383.481 800.556 383.142 799.115 382.359C797.675 381.575 796.498 380.382 795.736 378.931C794.973 377.479 794.657 375.834 794.83 374.203C795.002 372.572 795.653 371.029 796.703 369.769C797.752 368.509 799.151 367.588 800.723 367.123C802.296 366.659 803.971 366.671 805.537 367.158C807.102 367.645 808.489 368.586 809.52 369.861C810.901 371.571 811.546 373.76 811.316 375.946C811.085 378.132 809.997 380.137 808.289 381.521Z" fill="#949494"/>
<path d="M379.747 367C376.631 367 373.643 368.238 371.441 370.441C369.238 372.644 368 375.633 368 378.749C368 385.237 379.747 406.651 379.747 406.651C379.747 406.651 391.493 385.237 391.493 378.749C391.493 377.206 391.189 375.678 390.599 374.253C390.009 372.827 389.144 371.532 388.053 370.441C386.962 369.35 385.667 368.485 384.242 367.894C382.817 367.304 381.289 367 379.747 367ZM379.747 384.917C378.527 384.917 377.335 384.555 376.32 383.877C375.306 383.199 374.516 382.236 374.049 381.109C373.582 379.982 373.46 378.742 373.698 377.545C373.936 376.349 374.523 375.25 375.386 374.387C376.248 373.525 377.347 372.937 378.544 372.699C379.74 372.461 380.98 372.583 382.107 373.05C383.233 373.517 384.197 374.307 384.874 375.322C385.552 376.336 385.914 377.529 385.914 378.749C385.914 380.384 385.264 381.953 384.107 383.11C382.951 384.267 381.382 384.917 379.747 384.917Z" fill="#E2980B"/>
</g>
<defs>
<clipPath id="clip0_1124_3987">
<rect width="1300" height="697" fill="white"/>
</clipPath>
</defs>
</svg>
