<svg width="553" height="84" viewBox="0 0 553 84" fill="none" xmlns="http://www.w3.org/2000/svg">
<path d="M-2.68597e-05 1.17011L264.3 57.5927L264.55 56.4226L0.24997 -1.15065e-05L-2.68597e-05 1.17011Z" fill="#949494"/>
<path d="M284.045 53.1959C285.235 55.0318 285.853 57.1794 285.823 59.3671C285.792 61.5548 285.113 63.6843 283.872 65.4863C282.63 67.2883 280.883 68.6819 278.85 69.4909C276.817 70.2999 274.589 70.4879 272.45 70.0311C270.31 69.5743 268.354 68.4933 266.829 66.9248C265.303 65.3563 264.278 63.3707 263.881 61.219C263.485 59.0674 263.735 56.8465 264.601 54.837C265.467 52.8275 266.909 51.1199 268.745 49.9299C271.208 48.3375 274.203 47.7871 277.071 48.3994C279.939 49.0117 282.447 50.7366 284.045 53.1959ZM266.481 64.5783C267.542 66.2157 269.065 67.5016 270.857 68.2735C272.649 69.0454 274.629 69.2685 276.549 68.9147C278.468 68.5609 280.239 67.6459 281.638 66.2857C283.037 64.9254 284.002 63.1808 284.409 61.2726C284.817 59.3644 284.65 57.3782 283.929 55.5652C283.207 53.7523 281.965 52.1939 280.358 51.0873C278.751 49.9807 276.851 49.3754 274.9 49.3482C272.949 49.3209 271.034 49.8728 269.396 50.934C267.202 52.3591 265.664 54.5959 265.117 57.1538C264.57 59.7117 265.061 62.3818 266.481 64.5783Z" fill="#949494"/>
<path d="M551.221 66.7777C552.411 68.6137 553.03 70.7613 552.999 72.949C552.968 75.1367 552.289 77.2662 551.048 79.0682C549.807 80.8702 548.059 82.2638 546.026 83.0728C543.993 83.8817 541.766 84.0697 539.626 83.613C537.486 83.1562 535.53 82.0752 534.005 80.5067C532.48 78.9381 531.454 76.9525 531.057 74.8009C530.661 72.6493 530.911 70.4283 531.777 68.4189C532.643 66.4094 534.085 64.7017 535.922 63.5118C538.385 61.9194 541.379 61.369 544.247 61.9813C547.116 62.5935 549.624 64.3185 551.221 66.7777ZM533.657 78.1601C534.718 79.7976 536.241 81.0835 538.033 81.8554C539.825 82.6272 541.806 82.8504 543.725 82.4966C545.644 82.1427 547.415 81.2278 548.814 79.8675C550.213 78.5073 551.178 76.7627 551.586 74.8545C551.993 72.9463 551.826 70.9601 551.105 69.1471C550.384 67.3341 549.141 65.7758 547.534 64.6692C545.927 63.5625 544.028 62.9573 542.077 62.93C540.125 62.9027 538.21 63.4546 536.572 64.5159C534.379 65.941 532.84 68.1778 532.293 70.7357C531.747 73.2936 532.237 75.9636 533.657 78.1601Z" fill="#949494"/>
</svg>
