<svg width="1250" height="1069" viewBox="0 0 1250 1069" fill="none" xmlns="http://www.w3.org/2000/svg">
<path opacity="0.5" d="M918.193 940.856C918.482 937.172 918.929 933.457 919.522 929.814L921.307 930.104C920.723 933.698 920.282 937.363 919.996 940.998L918.193 940.856ZM921.761 918.921C922.654 915.338 923.709 911.748 924.895 908.25L926.609 908.831C925.437 912.282 924.397 915.823 923.516 919.357L921.761 918.921ZM928.903 897.877C930.373 894.496 932.004 891.129 933.75 887.87L935.345 888.724C933.621 891.94 932.012 895.262 930.562 898.597L928.903 897.877ZM940.916 879.27L939.397 878.29C941.402 875.182 943.556 872.124 945.799 869.202L947.234 870.303C945.021 873.187 942.895 876.204 940.916 879.27ZM954.265 861.884L952.926 860.668C955.408 857.935 958.035 855.271 960.733 852.753L961.968 854.075C959.305 856.56 956.713 859.187 954.265 861.884ZM970.291 846.931L969.172 845.511C972.072 843.224 975.105 841.03 978.187 838.99L979.185 840.498C976.145 842.511 973.152 844.675 970.291 846.931ZM1184.44 971.525C1184.99 967.927 1185.39 964.259 1185.64 960.621L1187.44 960.743C1187.19 964.431 1186.78 968.149 1186.23 971.796L1184.44 971.525ZM988.58 834.823L987.709 833.238C990.945 831.462 994.297 829.798 997.672 828.291L998.408 829.943C995.078 831.429 991.771 833.071 988.58 834.823ZM1185.93 949.655C1185.87 946.014 1185.67 942.329 1185.31 938.702L1187.11 938.527C1187.47 942.203 1187.68 945.938 1187.74 949.628L1185.93 949.655ZM1008.6 825.887L1008.01 824.18C1011.49 822.957 1015.07 821.864 1018.64 820.93L1019.1 822.68C1015.57 823.601 1012.04 824.68 1008.6 825.887ZM1183.8 927.836C1183.16 924.25 1182.35 920.648 1181.41 917.129L1183.16 916.662C1184.11 920.228 1184.93 923.879 1185.58 927.514L1183.8 927.836ZM1029.82 820.342L1029.5 818.561C1033.14 817.923 1036.85 817.428 1040.52 817.089L1040.69 818.89C1037.06 819.224 1033.4 819.713 1029.82 820.342ZM1178.15 906.653C1176.92 903.221 1175.54 899.798 1174.04 896.48L1175.69 895.733C1177.21 899.097 1178.61 902.566 1179.85 906.044L1178.15 906.653ZM1051.64 818.335L1051.63 816.526C1055.32 816.491 1059.06 816.61 1062.73 816.879L1062.6 818.683C1058.97 818.417 1055.29 818.301 1051.64 818.335ZM1169.11 886.678C1167.34 883.489 1165.41 880.34 1163.39 877.317L1164.89 876.31C1166.94 879.374 1168.89 882.567 1170.69 885.799L1169.11 886.678ZM1073.49 819.933L1073.77 818.146C1077.42 818.719 1081.09 819.451 1084.67 820.323L1084.24 822.08C1080.71 821.22 1077.09 820.498 1073.49 819.933ZM1156.91 868.46C1154.64 865.613 1152.22 862.824 1149.72 860.173L1151.04 858.932C1153.57 861.619 1156.02 864.446 1158.32 867.333L1156.91 868.46ZM1094.78 825.113L1095.35 823.398C1098.85 824.563 1102.35 825.892 1105.74 827.346L1105.03 829.009C1101.68 827.574 1098.23 826.264 1094.78 825.113L1094.78 825.113ZM1141.87 852.51C1139.16 850.081 1136.32 847.731 1133.41 845.525L1134.5 844.084C1137.45 846.32 1140.33 848.702 1143.08 851.164L1141.87 852.51ZM1114.93 833.736L1115.77 832.137C1119.03 833.86 1122.27 835.748 1125.38 837.73L1124.41 839.255C1121.34 837.298 1118.14 835.437 1114.93 833.736Z" fill="#949494"/>
<path opacity="0.5" d="M491.492 874.059C491.755 870.598 492.167 867.108 492.717 863.687L494.399 863.964C493.858 867.339 493.451 870.782 493.191 874.196L491.492 874.059ZM494.8 853.457C495.633 850.093 496.618 846.723 497.728 843.439L499.343 843.99C498.248 847.229 497.276 850.554 496.455 853.872L494.8 853.457ZM501.479 833.703C502.855 830.53 504.383 827.371 506.021 824.313L507.525 825.12C505.909 828.137 504.401 831.254 503.043 834.384L501.479 833.703ZM512.752 816.251L511.318 815.326C513.199 812.411 515.222 809.543 517.328 806.803L518.682 807.842C516.604 810.546 514.609 813.375 512.752 816.251ZM525.286 799.95L524.022 798.804C526.353 796.242 528.822 793.746 531.358 791.387L532.524 792.632C530.022 794.96 527.587 797.422 525.286 799.95ZM540.349 785.942L539.291 784.604C542.018 782.463 544.871 780.409 547.769 778.5L548.713 779.92C545.854 781.803 543.04 783.829 540.349 785.942ZM742.418 903.567C742.923 900.188 743.293 896.742 743.516 893.324L745.217 893.444C744.99 896.908 744.615 900.401 744.103 903.826L742.418 903.567ZM557.551 774.612L556.727 773.12C559.771 771.46 562.925 769.905 566.101 768.498L566.799 770.052C563.666 771.44 560.554 772.974 557.551 774.612ZM743.763 883.021C743.703 879.6 743.5 876.137 743.159 872.728L744.855 872.568C745.2 876.023 745.406 879.533 745.467 883L743.763 883.021ZM576.396 766.268L575.827 764.662C579.108 763.522 582.476 762.504 585.839 761.636L586.274 763.282C582.956 764.138 579.632 765.143 576.396 766.268ZM741.711 862.515C741.091 859.143 740.324 855.756 739.43 852.448L741.075 852.013C741.981 855.367 742.759 858.8 743.387 862.216L741.711 862.515ZM596.368 761.113L596.069 759.439C599.493 758.848 602.985 758.393 606.448 758.084L606.608 759.777C603.191 760.081 599.746 760.531 596.368 761.113ZM736.332 842.596C735.169 839.368 733.858 836.148 732.435 833.027L733.986 832.33C735.428 835.494 736.757 838.757 737.935 842.029L736.332 842.596ZM616.926 759.283L616.906 757.584C620.386 757.561 623.907 757.682 627.373 757.944L627.253 759.639C623.834 759.38 620.36 759.261 616.926 759.283ZM727.766 823.804C726.088 820.803 724.266 817.839 722.351 814.993L723.765 814.051C725.705 816.936 727.552 819.941 729.253 822.982L727.766 823.804ZM637.517 760.842L637.777 759.164C641.214 759.711 644.669 760.409 648.047 761.237L647.648 762.887C644.316 762.07 640.907 761.382 637.517 760.842ZM716.227 806.655C714.081 803.974 711.795 801.347 709.433 798.849L710.67 797.687C713.064 800.219 715.382 802.881 717.557 805.599L716.227 806.655ZM657.585 765.765L658.12 764.154C661.419 765.258 664.716 766.516 667.92 767.891L667.254 769.451C664.092 768.095 660.84 766.854 657.585 765.765L657.585 765.765ZM702.016 791.629C699.462 789.34 696.776 787.124 694.031 785.044L695.058 783.692C697.84 785.801 700.563 788.047 703.151 790.368L702.016 791.629ZM676.589 773.918L677.382 772.418C680.456 774.046 683.515 775.828 686.448 777.698L685.535 779.129C682.639 777.282 679.622 775.525 676.589 773.918Z" fill="#949494"/>
<path opacity="0.5" d="M13.4902 187.927C13.4266 184.126 13.5214 180.278 13.7727 176.489L15.6292 176.611C15.3819 180.349 15.288 184.146 15.351 187.896L13.4902 187.927ZM15.0023 165.114C15.567 161.357 16.2967 157.577 17.1705 153.88L18.9818 154.307C18.1192 157.955 17.3993 161.684 16.8423 165.389L15.0023 165.114ZM20.2622 142.864C21.4369 139.258 22.7783 135.651 24.2489 132.142L25.9654 132.862C24.5137 136.324 23.1905 139.883 22.0314 143.44L20.2622 142.864ZM30.7482 122.635L29.0963 121.78C30.8464 118.401 32.7541 115.059 34.7658 111.847L36.3429 112.835C34.3576 116.004 32.4753 119.302 30.7482 122.635ZM42.7213 103.526L41.2312 102.412C43.5061 99.37 45.9362 96.386 48.4541 93.543L49.8473 94.7768C47.3628 97.5815 44.9655 100.525 42.7213 103.526ZM57.6743 86.6478L56.389 85.3028C59.1358 82.6773 62.028 80.134 64.9851 77.7436L66.1547 79.1909C63.2372 81.5489 60.3841 84.0578 57.6743 86.6478ZM289.161 193.337C289.368 189.599 289.422 185.803 289.319 182.053L291.179 182.002C291.283 185.803 291.229 189.651 291.019 193.44L289.161 193.337ZM75.2217 72.4615L74.1755 70.9229C77.3157 68.7879 80.5859 66.7564 83.8955 64.8842L84.8111 66.5037C81.546 68.3511 78.3195 70.3554 75.2217 72.4615ZM288.545 170.794C288.135 167.07 287.563 163.316 286.848 159.637L288.675 159.282C289.4 163.011 289.978 166.816 290.395 170.59L288.545 170.794ZM94.8573 61.3546L94.0772 59.6647C97.5269 58.0719 101.084 56.6027 104.651 55.2979L105.29 57.0451C101.771 58.3329 98.2605 59.7824 94.8573 61.3546ZM284.242 148.656C283.227 145.047 282.051 141.436 280.745 137.924L282.489 137.275C283.812 140.834 285.005 144.494 286.033 148.152L284.242 148.656ZM116.04 53.6044L115.546 51.8108C119.207 50.8021 122.956 49.9329 126.688 49.2273L127.034 51.0557C123.351 51.752 119.652 52.6094 116.04 53.6044ZM276.382 127.514C274.792 124.119 273.042 120.748 271.18 117.496L272.795 116.571C274.682 119.867 276.455 123.283 278.067 126.724L276.382 127.514ZM138.196 49.4173L138.002 47.5668C141.782 47.1701 145.621 46.9264 149.414 46.8427L149.454 48.7032C145.713 48.7856 141.925 49.0261 138.196 49.4173ZM265.173 107.94C263.045 104.847 260.766 101.809 258.397 98.9111L259.839 97.733C262.239 100.671 264.549 103.75 266.706 106.884L265.173 107.94ZM160.731 48.9204L160.843 47.063C164.633 47.2935 168.459 47.6853 172.213 48.2282L171.947 50.0699C168.243 49.5343 164.469 49.1475 160.731 48.9204ZM250.899 90.4733C248.296 87.7787 245.546 85.1591 242.726 82.6876L243.953 81.2884C246.811 83.7933 249.599 86.4485 252.237 89.1803L250.899 90.4733ZM183.037 52.147L183.455 50.3339C187.151 51.1859 190.862 52.2053 194.483 53.3626L193.916 55.1352C190.344 53.9935 186.683 52.9881 183.037 52.147L183.037 52.147ZM233.936 75.607C230.929 73.3836 227.786 71.2542 224.593 69.2787L225.573 67.6961C228.808 69.6987 231.995 71.8567 235.042 74.1106L233.936 75.607ZM204.513 59.0099L205.223 57.2896C208.728 58.7362 212.232 60.3536 215.609 62.0797L214.762 63.737C211.428 62.0317 207.972 60.438 204.513 59.0099Z" fill="#949494"/>
<path opacity="0.5" d="M480.39 296.123C480.335 292.843 480.417 289.522 480.634 286.252L482.236 286.358C482.022 289.583 481.941 292.86 481.996 296.096L480.39 296.123ZM481.695 276.435C482.182 273.193 482.812 269.931 483.566 266.74L485.129 267.109C484.385 270.258 483.763 273.475 483.283 276.673L481.695 276.435ZM486.234 257.234C487.248 254.122 488.405 251.009 489.675 247.981L491.156 248.601C489.903 251.589 488.761 254.661 487.761 257.731L486.234 257.234ZM495.284 239.776L493.858 239.037C495.368 236.122 497.015 233.238 498.751 230.466L500.112 231.318C498.399 234.053 496.774 236.899 495.284 239.776ZM505.616 223.285L504.33 222.323C506.294 219.698 508.391 217.122 510.564 214.669L511.766 215.734C509.622 218.154 507.553 220.695 505.616 223.285ZM518.521 208.718L517.412 207.558C519.782 205.292 522.278 203.097 524.83 201.034L525.84 202.283C523.322 204.318 520.86 206.483 518.521 208.718ZM718.296 300.792C718.475 297.566 718.521 294.29 718.433 291.054L720.038 291.01C720.128 294.29 720.081 297.611 719.9 300.881L718.296 300.792ZM533.665 196.475L532.762 195.148C535.472 193.305 538.294 191.552 541.15 189.936L541.94 191.334C539.122 192.928 536.338 194.658 533.665 196.475ZM717.765 281.337C717.41 278.124 716.918 274.884 716.3 271.709L717.877 271.402C718.502 274.621 719.002 277.904 719.361 281.161L717.765 281.337ZM550.61 186.89L549.937 185.432C552.914 184.057 555.984 182.789 559.063 181.663L559.614 183.171C556.577 184.282 553.547 185.533 550.61 186.89ZM714.051 262.232C713.175 259.117 712.16 256.001 711.033 252.97L712.538 252.41C713.68 255.482 714.709 258.64 715.597 261.797L714.051 262.232ZM568.891 180.202L568.465 178.654C571.624 177.783 574.86 177.033 578.081 176.424L578.379 178.002C575.201 178.603 572.009 179.343 568.891 180.202ZM707.268 243.986C705.896 241.056 704.385 238.147 702.778 235.341L704.172 234.542C705.8 237.387 707.331 240.335 708.722 243.304L707.268 243.986ZM588.012 176.588L587.845 174.991C591.106 174.649 594.42 174.438 597.693 174.366L597.728 175.972C594.499 176.043 591.23 176.25 588.012 176.588ZM697.594 227.093C695.758 224.424 693.791 221.803 691.747 219.302L692.991 218.285C695.062 220.821 697.056 223.478 698.917 226.183L697.594 227.093ZM607.46 176.159L607.557 174.556C610.828 174.755 614.129 175.093 617.369 175.562L617.139 177.151C613.943 176.689 610.686 176.355 607.46 176.159ZM685.276 212.02C683.029 209.694 680.656 207.434 678.223 205.301L679.281 204.093C681.748 206.255 684.154 208.546 686.431 210.904L685.276 212.02ZM626.71 178.944L627.071 177.379C630.261 178.114 633.463 178.994 636.588 179.993L636.099 181.523C633.016 180.537 629.857 179.67 626.71 178.944L626.71 178.944ZM670.637 199.19C668.042 197.271 665.329 195.433 662.574 193.729L663.419 192.363C666.211 194.091 668.961 195.953 671.591 197.899L670.637 199.19ZM645.244 184.867L645.857 183.382C648.882 184.63 651.906 186.026 654.82 187.516L654.089 188.946C651.212 187.474 648.229 186.099 645.244 184.867Z" fill="#949494"/>
<path opacity="0.5" d="M272.39 550.123C272.335 546.843 272.417 543.522 272.633 540.252L274.236 540.358C274.022 543.583 273.941 546.86 273.995 550.096L272.39 550.123ZM273.695 530.435C274.182 527.193 274.812 523.931 275.566 520.74L277.129 521.109C276.384 524.258 275.763 527.475 275.283 530.673L273.695 530.435ZM278.234 511.234C279.248 508.122 280.405 505.009 281.674 501.981L283.156 502.601C281.903 505.589 280.761 508.661 279.761 511.731L278.234 511.234ZM287.283 493.776L285.858 493.037C287.368 490.122 289.015 487.238 290.751 484.466L292.112 485.318C290.398 488.053 288.774 490.899 287.283 493.776ZM297.616 477.285L296.33 476.323C298.294 473.698 300.391 471.122 302.564 468.669L303.766 469.734C301.622 472.154 299.553 474.695 297.616 477.285ZM310.521 462.718L309.412 461.558C311.782 459.292 314.278 457.097 316.83 455.034L317.84 456.283C315.322 458.318 312.859 460.483 310.521 462.718ZM510.296 554.792C510.475 551.566 510.521 548.29 510.432 545.054L512.038 545.01C512.127 548.29 512.081 551.611 511.899 554.881L510.296 554.792ZM325.664 450.475L324.762 449.148C327.472 447.305 330.294 445.552 333.15 443.936L333.94 445.334C331.122 446.928 328.338 448.658 325.664 450.475ZM509.765 535.337C509.41 532.124 508.917 528.884 508.3 525.709L509.876 525.402C510.502 528.621 511.002 531.904 511.361 535.161L509.765 535.337ZM342.61 440.89L341.937 439.432C344.914 438.057 347.984 436.789 351.062 435.663L351.614 437.171C348.576 438.282 345.547 439.533 342.61 440.89ZM506.051 516.232C505.175 513.117 504.16 510.001 503.033 506.97L504.538 506.41C505.68 509.482 506.709 512.64 507.597 515.797L506.051 516.232ZM360.891 434.202L360.465 432.654C363.624 431.783 366.86 431.033 370.08 430.424L370.379 432.002C367.2 432.603 364.009 433.343 360.891 434.202ZM499.267 497.986C497.895 495.056 496.385 492.147 494.778 489.341L496.172 488.542C497.8 491.387 499.331 494.335 500.722 497.304L499.267 497.986ZM380.012 430.588L379.845 428.991C383.106 428.649 386.42 428.438 389.693 428.366L389.728 429.972C386.499 430.043 383.23 430.25 380.012 430.588ZM489.594 481.093C487.758 478.424 485.791 475.803 483.747 473.302L484.991 472.285C487.062 474.821 489.056 477.478 490.917 480.183L489.594 481.093ZM399.46 430.159L399.557 428.556C402.828 428.755 406.129 429.093 409.369 429.562L409.139 431.151C405.943 430.689 402.686 430.355 399.46 430.159ZM477.276 466.02C475.029 463.694 472.656 461.434 470.223 459.301L471.281 458.093C473.748 460.255 476.153 462.546 478.431 464.904L477.276 466.02ZM418.71 432.944L419.071 431.379C422.261 432.114 425.463 432.994 428.588 433.993L428.099 435.523C425.016 434.537 421.857 433.67 418.71 432.944L418.71 432.944ZM462.637 453.19C460.042 451.271 457.329 449.433 454.573 447.729L455.419 446.363C458.211 448.091 460.961 449.953 463.591 451.899L462.637 453.19ZM437.244 438.867L437.857 437.382C440.882 438.63 443.906 440.026 446.82 441.516L446.089 442.946C443.212 441.474 440.229 440.099 437.244 438.867Z" fill="#949494"/>
<path opacity="0.5" d="M38.3896 799.123C38.3347 795.843 38.4166 792.522 38.6334 789.252L40.2356 789.358C40.0222 792.583 39.9412 795.86 39.9955 799.096L38.3896 799.123ZM39.6946 779.435C40.1819 776.193 40.8117 772.931 41.5658 769.74L43.129 770.109C42.3845 773.258 41.7632 776.475 41.2826 779.673L39.6946 779.435ZM44.2339 760.234C45.2477 757.122 46.4054 754.009 47.6745 750.981L49.1559 751.601C47.903 754.589 46.7611 757.661 45.7608 760.731L44.2339 760.234ZM53.2835 742.776L51.8579 742.037C53.3683 739.122 55.0146 736.238 56.7507 733.466L58.1118 734.318C56.3985 737.053 54.774 739.899 53.2835 742.776ZM63.6163 726.285L62.3304 725.323C64.2937 722.698 66.3908 720.122 68.5638 717.669L69.7662 718.734C67.622 721.154 65.5531 723.695 63.6163 726.285ZM76.521 711.718L75.4117 710.558C77.7822 708.292 80.2783 706.097 82.8302 704.034L83.8397 705.283C81.3218 707.318 78.8595 709.483 76.521 711.718ZM276.296 803.792C276.475 800.566 276.521 797.29 276.433 794.054L278.038 794.01C278.127 797.29 278.081 800.611 277.899 803.881L276.296 803.792ZM91.6645 699.475L90.7617 698.148C93.4717 696.305 96.2938 694.552 99.1501 692.936L99.9402 694.334C97.1224 695.928 94.3379 697.658 91.6645 699.475ZM275.765 784.337C275.41 781.124 274.917 777.884 274.3 774.709L275.876 774.402C276.502 777.621 277.002 780.904 277.361 784.161L275.765 784.337ZM108.61 689.89L107.937 688.432C110.914 687.057 113.984 685.789 117.063 684.663L117.614 686.171C114.577 687.282 111.547 688.533 108.61 689.89ZM272.051 765.232C271.175 762.117 270.16 759.001 269.033 755.97L270.538 755.41C271.68 758.482 272.709 761.64 273.597 764.797L272.051 765.232ZM126.891 683.202L126.465 681.654C129.624 680.783 132.86 680.033 136.08 679.424L136.379 681.002C133.2 681.603 130.009 682.343 126.891 683.202ZM265.267 746.986C263.895 744.056 262.385 741.147 260.778 738.341L262.172 737.542C263.8 740.387 265.331 743.335 266.722 746.304L265.267 746.986ZM146.012 679.588L145.845 677.991C149.106 677.649 152.42 677.438 155.693 677.366L155.728 678.972C152.499 679.043 149.23 679.25 146.012 679.588ZM255.594 730.093C253.758 727.424 251.791 724.803 249.747 722.302L250.991 721.285C253.062 723.821 255.056 726.478 256.917 729.183L255.594 730.093ZM165.46 679.159L165.557 677.556C168.828 677.755 172.129 678.093 175.369 678.562L175.139 680.151C171.943 679.689 168.686 679.355 165.46 679.159ZM243.276 715.02C241.029 712.694 238.656 710.434 236.223 708.301L237.281 707.093C239.748 709.255 242.153 711.546 244.431 713.904L243.276 715.02ZM184.71 681.944L185.071 680.379C188.261 681.114 191.463 681.994 194.588 682.993L194.099 684.523C191.016 683.537 187.857 682.67 184.71 681.944L184.71 681.944ZM228.637 702.19C226.042 700.271 223.329 698.433 220.574 696.729L221.419 695.363C224.211 697.091 226.961 698.953 229.591 700.899L228.637 702.19ZM203.244 687.867L203.857 686.382C206.882 687.63 209.906 689.026 212.82 690.516L212.089 691.946C209.212 690.474 206.229 689.099 203.244 687.867Z" fill="#949494"/>
<path opacity="0.5" d="M930.34 184.63C931.008 180.996 931.836 177.347 932.801 173.785L934.547 174.257C933.595 177.772 932.778 181.372 932.119 184.957L930.34 184.63ZM936.153 163.18C937.411 159.709 938.831 156.247 940.372 152.89L942.017 153.645C940.495 156.956 939.095 160.372 937.854 163.796L936.153 163.18ZM945.43 142.986C947.24 139.775 949.21 136.595 951.284 133.533L952.782 134.547C950.735 137.568 948.792 140.706 947.005 143.874L945.43 142.986ZM959.299 125.719L957.889 124.587C960.204 121.703 962.663 118.884 965.196 116.208L966.509 117.452C964.01 120.092 961.584 122.873 959.299 125.719ZM974.371 109.804L973.165 108.456C975.916 105.993 978.803 103.616 981.748 101.389L982.839 102.832C979.934 105.028 977.085 107.374 974.371 109.804ZM991.856 96.5853L990.888 95.0572C994.009 93.0817 997.253 91.2124 1000.53 89.5013L1001.37 91.1046C998.134 92.7926 994.934 94.6365 991.856 96.5853ZM1192 242.62C1192.92 239.098 1193.69 235.49 1194.31 231.897L1196.1 232.205C1195.47 235.847 1194.68 239.504 1193.75 243.074L1192 242.62ZM1011.3 86.4297L1010.59 84.763C1014 83.3303 1017.5 82.0211 1021.01 80.8713L1021.58 82.5901C1018.11 83.7248 1014.65 85.0164 1011.3 86.4297ZM1195.74 221.02C1196.06 217.392 1196.23 213.706 1196.26 210.062L1198.06 210.074C1198.04 213.767 1197.86 217.503 1197.54 221.179L1195.74 221.02ZM1032.14 79.6087L1031.72 77.8489C1035.31 76.9921 1038.98 76.2738 1042.63 75.7141L1042.9 77.5016C1039.3 78.0542 1035.68 78.7628 1032.14 79.6087ZM1195.88 199.098C1195.6 195.465 1195.17 191.798 1194.6 188.201L1196.39 187.917C1196.97 191.563 1197.4 195.279 1197.68 198.961L1195.88 199.098ZM1053.81 76.283L1053.68 74.4791C1057.36 74.2196 1061.1 74.1098 1064.79 74.1527L1064.77 75.9612C1061.13 75.919 1057.44 76.0272 1053.81 76.283ZM1192.44 177.445C1191.57 173.905 1190.55 170.357 1189.4 166.902L1191.12 166.329C1192.28 169.832 1193.32 173.427 1194.2 177.015L1192.44 177.445ZM1075.72 76.5394L1075.89 74.7387C1079.57 75.085 1083.28 75.5886 1086.91 76.2358L1086.59 78.0165C1083.01 77.3779 1079.35 76.8812 1075.72 76.5394ZM1185.51 156.644C1184.07 153.289 1182.48 149.957 1180.78 146.741L1182.38 145.895C1184.11 149.155 1185.72 152.532 1187.17 155.932L1185.51 156.644ZM1097.29 80.3847L1097.76 78.6363C1101.32 79.5823 1104.89 80.6889 1108.37 81.9258L1107.76 83.6297C1104.33 82.4095 1100.81 81.3176 1097.29 80.3847ZM1175.25 137.263C1173.29 134.197 1171.17 131.173 1168.96 128.278L1170.4 127.18C1172.64 130.114 1174.79 133.179 1176.78 136.288L1175.25 137.263ZM1117.93 87.7345L1118.68 86.0869C1122.04 87.6073 1125.38 89.2898 1128.61 91.0867L1127.73 92.6673C1124.54 90.8946 1121.24 89.235 1117.93 87.7345L1117.93 87.7345ZM1161.94 119.846C1159.5 117.151 1156.91 114.519 1154.25 112.025L1155.49 110.704C1158.18 113.233 1160.81 115.9 1163.28 118.632L1161.94 119.846ZM1137.08 98.3906L1138.09 96.8873C1141.15 98.9375 1144.18 101.15 1147.07 103.443L1145.94 104.86C1143.09 102.595 1140.1 100.414 1137.08 98.3906Z" fill="#949494"/>
<path opacity="0.5" d="M790.293 558.63C790.961 554.996 791.789 551.347 792.755 547.785L794.5 548.257C793.548 551.772 792.731 555.372 792.072 558.957L790.293 558.63ZM796.106 537.18C797.364 533.709 798.784 530.247 800.326 526.89L801.97 527.645C800.449 530.956 799.048 534.372 797.807 537.796L796.106 537.18ZM805.383 516.986C807.194 513.775 809.163 510.595 811.237 507.533L812.735 508.547C810.688 511.568 808.745 514.706 806.959 517.874L805.383 516.986ZM819.253 499.719L817.842 498.587C820.158 495.703 822.616 492.884 825.149 490.208L826.462 491.452C823.963 494.092 821.537 496.873 819.253 499.719ZM834.325 483.804L833.118 482.456C835.869 479.993 838.757 477.616 841.701 475.389L842.792 476.832C839.887 479.028 837.038 481.374 834.325 483.804ZM851.809 470.585L850.842 469.057C853.962 467.082 857.206 465.212 860.482 463.501L861.319 465.105C858.087 466.793 854.887 468.637 851.809 470.585ZM1051.95 616.62C1052.87 613.098 1053.65 609.49 1054.27 605.897L1056.05 606.205C1055.42 609.847 1054.63 613.504 1053.71 617.074L1051.95 616.62ZM871.249 460.43L870.547 458.763C873.949 457.33 877.455 456.021 880.967 454.871L881.529 456.59C878.064 457.725 874.605 459.016 871.249 460.43ZM1055.69 595.02C1056.01 591.392 1056.19 587.706 1056.21 584.062L1058.02 584.074C1057.99 587.767 1057.82 591.503 1057.49 595.179L1055.69 595.02ZM892.09 453.609L891.67 451.849C895.263 450.992 898.934 450.274 902.584 449.714L902.857 451.502C899.257 452.054 895.634 452.763 892.09 453.609ZM1055.83 573.098C1055.56 569.465 1055.13 565.798 1054.55 562.201L1056.34 561.917C1056.92 565.563 1057.35 569.279 1057.63 572.961L1055.83 573.098ZM913.761 450.283L913.634 448.479C917.316 448.22 921.055 448.11 924.747 448.153L924.726 449.961C921.083 449.919 917.394 450.027 913.761 450.283ZM1052.39 551.445C1051.53 547.905 1050.51 544.357 1049.35 540.902L1051.07 540.329C1052.24 543.832 1053.27 547.427 1054.15 551.015L1052.39 551.445ZM935.677 450.539L935.847 448.739C939.524 449.085 943.23 449.589 946.86 450.236L946.542 452.016C942.961 451.378 939.305 450.881 935.677 450.539ZM1045.46 530.644C1044.03 527.289 1042.44 523.957 1040.74 520.741L1042.34 519.895C1044.06 523.155 1045.67 526.532 1047.13 529.932L1045.46 530.644ZM957.246 454.385L957.71 452.636C961.277 453.582 964.847 454.689 968.321 455.926L967.714 457.63C964.287 456.41 960.765 455.318 957.246 454.385ZM1035.21 511.263C1033.24 508.197 1031.13 505.173 1028.91 502.278L1030.35 501.18C1032.59 504.114 1034.74 507.179 1036.73 510.288L1035.21 511.263ZM977.884 461.734L978.63 460.087C981.989 461.607 985.33 463.29 988.559 465.087L987.679 466.667C984.493 464.895 981.198 463.235 977.884 461.734L977.884 461.734ZM1021.89 493.846C1019.45 491.151 1016.87 488.519 1014.2 486.025L1015.44 484.704C1018.14 487.233 1020.76 489.9 1023.23 492.632L1021.89 493.846ZM997.034 472.391L998.041 470.887C1001.1 472.938 1004.13 475.15 1007.02 477.443L1005.9 478.86C1003.04 476.595 1000.06 474.414 997.034 472.391Z" fill="#949494"/>
<path d="M476.391 323.75L300.975 208.297L300.318 209.295L475.734 324.747L476.391 323.75Z" fill="#949494"/>
<path d="M281.015 205.223C280.574 203.084 280.778 200.862 281.6 198.839C282.422 196.815 283.825 195.081 285.633 193.855C287.441 192.629 289.572 191.966 291.757 191.951C293.941 191.936 296.081 192.569 297.905 193.77C299.73 194.97 301.158 196.685 302.007 198.697C302.857 200.709 303.091 202.928 302.68 205.073C302.268 207.218 301.23 209.193 299.696 210.748C298.162 212.303 296.201 213.369 294.061 213.81C291.193 214.397 288.208 213.823 285.762 212.214C283.316 210.604 281.609 208.09 281.015 205.223ZM301.48 201.006C301.087 199.098 300.137 197.35 298.75 195.982C297.363 194.614 295.601 193.688 293.688 193.321C291.775 192.955 289.796 193.163 288.001 193.921C286.206 194.679 284.677 195.952 283.605 197.579C282.534 199.206 281.969 201.114 281.983 203.062C281.996 205.01 282.587 206.91 283.68 208.522C284.773 210.134 286.32 211.386 288.125 212.119C289.93 212.851 291.912 213.033 293.82 212.64C296.377 212.11 298.62 210.587 300.056 208.406C301.492 206.225 302.004 203.564 301.48 201.006Z" fill="#949494"/>
<path d="M933.467 201.37L728.932 306.562L729.478 307.624L934.014 202.432L933.467 201.37Z" fill="#949494"/>
<path d="M716.449 322.436C714.37 321.769 712.534 320.499 711.176 318.789C709.817 317.079 708.997 315.004 708.817 312.827C708.638 310.65 709.108 308.468 710.168 306.558C711.229 304.649 712.831 303.096 714.774 302.097C716.716 301.098 718.911 300.697 721.081 300.946C723.251 301.194 725.298 302.081 726.964 303.493C728.63 304.906 729.84 306.781 730.441 308.881C731.041 310.981 731.006 313.212 730.338 315.292C729.441 318.08 727.474 320.397 724.87 321.736C722.267 323.075 719.238 323.327 716.449 322.436ZM722.833 302.54C720.978 301.945 718.988 301.913 717.116 302.449C715.243 302.984 713.571 304.064 712.311 305.55C711.051 307.036 710.261 308.862 710.039 310.798C709.817 312.733 710.174 314.691 711.064 316.423C711.955 318.156 713.339 319.585 715.042 320.531C716.745 321.476 718.69 321.896 720.632 321.735C722.573 321.575 724.423 320.843 725.949 319.631C727.474 318.419 728.606 316.783 729.201 314.927C729.996 312.44 729.772 309.739 728.578 307.416C727.384 305.094 725.318 303.34 722.833 302.54Z" fill="#949494"/>
<path d="M479.597 292.94C476.455 292.94 473.44 294.189 471.218 296.412C468.996 298.634 467.747 301.649 467.747 304.792C467.747 311.338 479.597 332.94 479.597 332.94C479.597 332.94 491.447 311.338 491.447 304.792C491.447 303.236 491.141 301.695 490.545 300.257C489.95 298.819 489.077 297.512 487.977 296.412C486.876 295.311 485.57 294.438 484.132 293.843C482.694 293.247 481.154 292.94 479.597 292.94ZM479.597 311.015C478.367 311.015 477.164 310.65 476.141 309.966C475.118 309.282 474.321 308.31 473.85 307.173C473.379 306.036 473.256 304.785 473.496 303.578C473.736 302.371 474.328 301.263 475.198 300.393C476.068 299.522 477.177 298.93 478.384 298.69C479.59 298.45 480.841 298.573 481.978 299.044C483.115 299.515 484.086 300.312 484.77 301.335C485.454 302.359 485.819 303.562 485.819 304.792C485.819 306.443 485.163 308.025 483.996 309.192C482.83 310.359 481.247 311.015 479.597 311.015Z" fill="#E2980B"/>
<path d="M271.597 546.94C268.455 546.94 265.44 548.189 263.218 550.412C260.996 552.634 259.747 555.649 259.747 558.792C259.747 565.338 271.597 586.94 271.597 586.94C271.597 586.94 283.447 565.338 283.447 558.792C283.447 557.236 283.141 555.695 282.545 554.257C281.95 552.819 281.077 551.512 279.977 550.412C278.876 549.311 277.57 548.438 276.132 547.843C274.694 547.247 273.154 546.94 271.597 546.94ZM271.597 565.015C270.367 565.015 269.164 564.65 268.141 563.966C267.118 563.282 266.321 562.31 265.85 561.173C265.379 560.036 265.256 558.785 265.496 557.578C265.736 556.371 266.328 555.263 267.198 554.393C268.068 553.522 269.177 552.93 270.384 552.69C271.59 552.45 272.841 552.573 273.978 553.044C275.115 553.515 276.086 554.312 276.77 555.335C277.454 556.359 277.819 557.562 277.819 558.792C277.819 560.443 277.163 562.025 275.996 563.192C274.83 564.359 273.247 565.015 271.597 565.015Z" fill="#E2980B"/>
<path d="M929.644 183.94C926.502 183.94 923.487 185.189 921.265 187.412C919.043 189.634 917.794 192.649 917.794 195.792C917.794 202.338 929.644 223.94 929.644 223.94C929.644 223.94 941.494 202.338 941.494 195.792C941.494 194.236 941.188 192.695 940.592 191.257C939.997 189.819 939.124 188.512 938.024 187.412C936.923 186.311 935.617 185.438 934.179 184.843C932.741 184.247 931.201 183.94 929.644 183.94ZM929.644 202.015C928.414 202.015 927.211 201.65 926.188 200.966C925.165 200.282 924.368 199.31 923.897 198.173C923.426 197.036 923.303 195.785 923.543 194.578C923.783 193.371 924.375 192.263 925.245 191.393C926.115 190.522 927.224 189.93 928.431 189.69C929.637 189.45 930.888 189.573 932.025 190.044C933.162 190.515 934.133 191.312 934.817 192.335C935.501 193.359 935.866 194.562 935.866 195.792C935.866 197.443 935.21 199.025 934.043 200.192C932.877 201.359 931.294 202.015 929.644 202.015Z" fill="#E2980B"/>
<path d="M789.597 557.94C786.455 557.94 783.441 559.189 781.218 561.412C778.996 563.634 777.748 566.649 777.748 569.792C777.748 576.338 789.597 597.94 789.597 597.94C789.597 597.94 801.447 576.338 801.447 569.792C801.447 568.236 801.141 566.695 800.545 565.257C799.95 563.819 799.077 562.512 797.977 561.412C796.876 560.311 795.57 559.438 794.132 558.843C792.695 558.247 791.154 557.94 789.597 557.94ZM789.597 576.015C788.367 576.015 787.164 575.65 786.141 574.966C785.118 574.282 784.321 573.31 783.85 572.173C783.379 571.036 783.256 569.785 783.496 568.578C783.736 567.371 784.328 566.263 785.198 565.393C786.068 564.522 787.177 563.93 788.384 563.69C789.591 563.45 790.841 563.573 791.978 564.044C793.115 564.515 794.087 565.312 794.77 566.335C795.454 567.359 795.819 568.562 795.819 569.792C795.819 571.443 795.163 573.025 793.997 574.192C792.83 575.359 791.247 576.015 789.597 576.015Z" fill="#E2980B"/>
<path d="M13.5974 183.94C10.4546 183.94 7.44055 185.189 5.21826 187.412C2.99597 189.634 1.7475 192.649 1.7475 195.792C1.7475 202.338 13.5974 223.94 13.5974 223.94C13.5974 223.94 25.4473 202.338 25.4473 195.792C25.4473 194.236 25.1408 192.695 24.5453 191.257C23.9498 189.819 23.0769 188.512 21.9766 187.412C20.8762 186.311 19.5699 185.438 18.1322 184.843C16.6945 184.247 15.1536 183.94 13.5974 183.94ZM13.5974 202.015C12.367 202.015 11.1642 201.65 10.1411 200.966C9.11802 200.282 8.32063 199.31 7.84977 198.173C7.3789 197.036 7.2557 195.785 7.49575 194.578C7.7358 193.371 8.3283 192.263 9.19835 191.393C10.0684 190.522 11.1769 189.93 12.3837 189.69C13.5905 189.45 14.8414 189.573 15.9782 190.044C17.1149 190.515 18.0865 191.312 18.7701 192.335C19.4537 193.359 19.8186 194.562 19.8186 195.792C19.8186 197.443 19.1632 199.025 17.9965 200.192C16.8298 201.359 15.2474 202.015 13.5974 202.015Z" fill="#E2980B"/>
<path d="M510.994 555.711L774.85 612.038L775.1 610.87L511.243 554.542L510.994 555.711Z" fill="#949494"/>
<path d="M794.562 607.649C795.75 609.482 796.368 611.626 796.337 613.81C796.306 615.994 795.628 618.12 794.389 619.919C793.15 621.718 791.405 623.109 789.376 623.917C787.346 624.724 785.122 624.912 782.986 624.456C780.85 624 778.897 622.921 777.375 621.355C775.852 619.789 774.828 617.807 774.432 615.659C774.036 613.511 774.286 611.293 775.151 609.287C776.015 607.281 777.455 605.576 779.288 604.388C781.747 602.799 784.736 602.249 787.6 602.86C790.463 603.472 792.967 605.194 794.562 607.649ZM777.027 619.012C778.086 620.647 779.607 621.931 781.396 622.701C783.185 623.472 785.162 623.695 787.078 623.341C788.994 622.988 790.762 622.075 792.159 620.717C793.556 619.359 794.519 617.617 794.926 615.712C795.333 613.807 795.166 611.824 794.446 610.014C793.726 608.204 792.485 606.649 790.881 605.544C789.277 604.439 787.381 603.835 785.433 603.808C783.485 603.78 781.573 604.331 779.938 605.391C777.748 606.814 776.211 609.047 775.666 611.6C775.12 614.154 775.61 616.819 777.027 619.012Z" fill="#949494"/>
<path d="M1061.29 621.208C1062.48 623.041 1063.1 625.185 1063.06 627.369C1063.03 629.553 1062.36 631.679 1061.12 633.478C1059.88 635.277 1058.13 636.668 1056.1 637.476C1054.07 638.283 1051.85 638.471 1049.71 638.015C1047.58 637.559 1045.63 636.48 1044.1 634.914C1042.58 633.348 1041.56 631.366 1041.16 629.218C1040.76 627.07 1041.01 624.852 1041.88 622.846C1042.74 620.84 1044.18 619.135 1046.02 617.947C1048.48 616.358 1051.46 615.808 1054.33 616.419C1057.19 617.031 1059.7 618.753 1061.29 621.208ZM1043.76 632.571C1044.81 634.206 1046.33 635.49 1048.12 636.26C1049.91 637.031 1051.89 637.254 1053.81 636.9C1055.72 636.547 1057.49 635.634 1058.89 634.276C1060.28 632.918 1061.25 631.176 1061.65 629.271C1062.06 627.366 1061.89 625.383 1061.17 623.573C1060.45 621.763 1059.21 620.208 1057.61 619.103C1056 617.998 1054.11 617.394 1052.16 617.367C1050.21 617.339 1048.3 617.89 1046.67 618.95C1044.48 620.372 1042.94 622.606 1042.39 625.159C1041.85 627.713 1042.34 630.378 1043.76 632.571Z" fill="#949494"/>
<path d="M32.6267 832.833C34.7785 832.459 36.993 832.731 38.9902 833.615C40.9874 834.5 42.6776 835.956 43.8471 837.802C45.0165 839.647 45.6127 841.797 45.5602 843.981C45.5077 846.165 44.8088 848.284 43.5521 850.07C42.2953 851.857 40.5371 853.231 38.4997 854.018C36.4623 854.805 34.2373 854.97 32.106 854.492C29.9747 854.014 28.0329 852.915 26.526 851.334C25.0192 849.752 24.0151 847.76 23.6407 845.608C23.142 842.722 23.808 839.757 25.4926 837.362C27.1773 834.967 29.7429 833.338 32.6267 832.833ZM36.2084 853.419C38.1274 853.085 39.9044 852.19 41.3145 850.846C42.7246 849.502 43.7046 847.77 44.1305 845.869C44.5564 843.968 44.4091 841.983 43.7072 840.166C43.0054 838.349 41.7804 836.78 40.1873 835.659C38.5943 834.538 36.7046 833.914 34.7573 833.867C32.81 833.82 30.8925 834.352 29.2473 835.395C27.6022 836.438 26.3032 837.945 25.5147 839.727C24.7262 841.508 24.4836 843.483 24.8175 845.403C25.2681 847.975 26.7204 850.264 28.8558 851.766C30.9913 853.269 33.6355 853.864 36.2084 853.419Z" fill="#506481"/>
<path d="M492.772 900.246L289.006 817.434L288.556 818.54L492.322 901.352L492.772 900.246Z" fill="#949494"/>
<path d="M268.83 818.31C267.981 816.298 267.747 814.079 268.16 811.934C268.572 809.789 269.611 807.814 271.145 806.26C272.68 804.705 274.641 803.64 276.78 803.2C278.92 802.759 281.142 802.963 283.165 803.786C285.189 804.608 286.923 806.012 288.149 807.82C289.374 809.628 290.036 811.759 290.05 813.943C290.064 816.127 289.431 818.266 288.229 820.09C287.027 821.914 285.312 823.341 283.299 824.191C280.6 825.326 277.561 825.344 274.848 824.242C272.136 823.14 269.971 821.007 268.83 818.31ZM288.081 810.187C287.324 808.392 286.051 806.863 284.425 805.791C282.798 804.72 280.89 804.155 278.942 804.168C276.994 804.181 275.093 804.771 273.48 805.864C271.868 806.957 270.615 808.503 269.881 810.308C269.148 812.112 268.965 814.094 269.358 816.002C269.75 817.91 270.7 819.658 272.087 821.027C273.473 822.395 275.234 823.321 277.147 823.688C279.061 824.056 281.04 823.847 282.835 823.09C285.24 822.072 287.142 820.142 288.126 817.723C289.11 815.304 289.093 812.594 288.081 810.187Z" fill="#949494"/>
<path d="M905.634 927.204L754.893 916.526L754.809 917.718L905.549 928.396L905.634 927.204Z" fill="#949494"/>
<path d="M735.984 923.615C734.553 921.965 733.643 919.928 733.37 917.761C733.096 915.594 733.472 913.395 734.449 911.441C735.425 909.487 736.959 907.866 738.857 906.784C740.754 905.702 742.93 905.207 745.109 905.361C747.288 905.515 749.372 906.312 751.098 907.651C752.823 908.99 754.113 910.81 754.804 912.882C755.495 914.954 755.556 917.185 754.979 919.292C754.402 921.398 753.214 923.287 751.564 924.719C749.35 926.635 746.466 927.595 743.545 927.388C740.625 927.181 737.906 925.824 735.984 923.615ZM751.768 909.922C750.491 908.451 748.807 907.391 746.928 906.877C745.049 906.363 743.06 906.418 741.212 907.034C739.364 907.65 737.74 908.801 736.546 910.34C735.351 911.879 734.64 913.738 734.502 915.681C734.364 917.624 734.806 919.565 735.771 921.257C736.735 922.949 738.18 924.317 739.923 925.188C741.665 926.058 743.627 926.393 745.56 926.149C747.492 925.905 749.309 925.093 750.781 923.816C752.752 922.103 753.962 919.678 754.147 917.073C754.332 914.468 753.476 911.897 751.768 909.922Z" fill="#949494"/>
<path d="M914.597 910.94C911.455 910.94 908.441 912.189 906.218 914.412C903.996 916.634 902.748 919.649 902.748 922.792C902.748 929.338 914.597 950.94 914.597 950.94C914.597 950.94 926.447 929.338 926.447 922.792C926.447 921.236 926.141 919.695 925.545 918.257C924.95 916.819 924.077 915.512 922.977 914.412C921.876 913.311 920.57 912.438 919.132 911.843C917.695 911.247 916.154 910.94 914.597 910.94ZM914.597 929.015C913.367 929.015 912.164 928.65 911.141 927.966C910.118 927.282 909.321 926.31 908.85 925.173C908.379 924.036 908.256 922.785 908.496 921.578C908.736 920.371 909.328 919.263 910.198 918.393C911.068 917.522 912.177 916.93 913.384 916.69C914.591 916.45 915.841 916.573 916.978 917.044C918.115 917.515 919.087 918.312 919.77 919.335C920.454 920.359 920.819 921.562 920.819 922.792C920.819 924.443 920.163 926.025 918.997 927.192C917.83 928.359 916.247 929.015 914.597 929.015Z" fill="#E2980B"/>
<path d="M494.505 879.242C491.363 879.242 488.349 880.491 486.126 882.714C483.904 884.936 482.656 887.951 482.656 891.094C482.656 897.64 494.505 919.242 494.505 919.242C494.505 919.242 506.355 897.64 506.355 891.094C506.355 889.538 506.049 887.996 505.453 886.559C504.858 885.121 503.985 883.814 502.885 882.714C501.784 881.613 500.478 880.74 499.04 880.144C497.603 879.549 496.062 879.242 494.505 879.242ZM494.505 897.316C493.275 897.316 492.072 896.951 491.049 896.268C490.026 895.584 489.229 894.612 488.758 893.475C488.287 892.338 488.164 891.087 488.404 889.88C488.644 888.673 489.236 887.564 490.106 886.694C490.976 885.824 492.085 885.231 493.292 884.991C494.499 884.751 495.749 884.875 496.886 885.345C498.023 885.816 498.995 886.614 499.678 887.637C500.362 888.66 500.727 889.863 500.727 891.094C500.727 892.744 500.071 894.327 498.904 895.494C497.738 896.661 496.155 897.316 494.505 897.316Z" fill="#E2980B"/>
<path opacity="0.5" d="M1190.75 246.44C1121.77 368.811 1438.25 207.94 1056.75 613.44" stroke="#949494" stroke-width="1.8" stroke-dasharray="12 12"/>
<path opacity="0.5" d="M272.248 586.94C275.914 604.44 254.548 641.94 139.748 651.94C24.9475 661.94 24.9141 754.107 38.7474 796.44" stroke="#949494" stroke-width="1.8" stroke-dasharray="12 12"/>
<path d="M37.5974 795.94C34.4546 795.94 31.4405 797.189 29.2183 799.412C26.996 801.634 25.7475 804.649 25.7475 807.792C25.7475 814.338 37.5974 835.94 37.5974 835.94C37.5974 835.94 49.4473 814.338 49.4473 807.792C49.4473 806.236 49.1408 804.695 48.5453 803.257C47.9498 801.819 47.0769 800.512 45.9766 799.412C44.8762 798.311 43.5699 797.438 42.1322 796.843C40.6945 796.247 39.1536 795.94 37.5974 795.94ZM37.5974 814.015C36.367 814.015 35.1642 813.65 34.1411 812.966C33.118 812.282 32.3206 811.31 31.8498 810.173C31.3789 809.036 31.2557 807.785 31.4957 806.578C31.7358 805.371 32.3283 804.263 33.1984 803.393C34.0684 802.522 35.1769 801.93 36.3837 801.69C37.5905 801.45 38.8414 801.573 39.9782 802.044C41.1149 802.515 42.0865 803.312 42.7701 804.335C43.4537 805.359 43.8186 806.562 43.8186 807.792C43.8186 809.443 43.1632 811.025 41.9965 812.192C40.8298 813.359 39.2474 814.015 37.5974 814.015Z" fill="#E2980B"/>
</svg>
